<?xml version="1.0" encoding="UTF-8"?>
<svg width="361px" height="307px" version="1.1" xmlns="http://www.w3.org/2000/svg">
    <path fill="#2b2b2b" d="M178.981152,1.56417296 C179.819786,0.135954295 181.182887,0.141757196 182.018114,1.56417296 L360.141714,304.913981 C360.980348,306.3422 360.312796,307.5 358.670118,307.5 L76.8062673,307.5 C75.1548935,307.5 74.4974501,306.341082 75.3345332,304.917087 L178.98129,128.599474 C179.819848,127.172971 181.182533,127.173524 182.025023,128.600862 L247.412678,239.380013 C248.255127,240.807283 247.590728,241.964314 245.937943,241.964314 L214.699632,241.964314 C213.042709,241.964314 211.011492,240.808166 210.162943,239.382257 L182.036197,192.117822 C181.187576,190.691791 179.825937,190.688713 178.987472,192.123644 L133.702311,269.623674 C132.867167,271.05292 133.542448,272.211554 135.196047,272.211554 L300.280339,272.211554 C301.94045,272.211554 302.610738,271.057831 301.767041,269.616834 L182.018828,65.0920773 C181.1798,63.6590533 179.817806,63.6580508 178.980701,65.0830794 L38.0965621,304.914278 C37.2576794,306.342333 35.2302909,307.5 33.5775061,307.5 L2.33919515,307.5 C0.682272113,307.5 0.0223251494,306.336397 0.857551708,304.913981 L178.981152,1.56417296 Z M178.981152,1.56417296"></path>
</svg>
