<?xml version="1.0" standalone="no"?>
<!DOCTYPE svg PUBLIC "-//W3C//DTD SVG 1.1//EN" "http://www.w3.org/Graphics/SVG/1.1/DTD/svg11.dtd">
<svg xmlns="http://www.w3.org/2000/svg"><metadata>This SVG WebFont was generated by YouWorkForThem.
Copyright (c) 1996 by YouWorkForThem. All rights reserved.</metadata><defs><font horiz-adv-x="1075" id="ywftsvg"><font-face ascent="1638" bbox="-119 -729 2386 2277" cap-height="1638" descent="-410" font-family="" font-stretch="normal" font-weight="300" panose-1="2 0 3 0 0 0 0 0 0 0" underline-position="0" underline-thickness="0" unicode-range="U+0020-2122" units-per-em="2048" x-height="1251"/><missing-glyph d="M256 1511v-1382h512v1382h-512zM897 0h-768v1638h768v-1638z" horiz-adv-x="1024"/><glyph d="M256 1511v-1382h512v1382h-512zM897 0h-768v1638h768v-1638z" glyph-name=".notdef" horiz-adv-x="1024"/><glyph glyph-name="glyph1" horiz-adv-x="0"/><glyph glyph-name="glyph2" horiz-adv-x="682"/><glyph glyph-name="space" horiz-adv-x="514" unicode=" "/><glyph d="M344 176v-147q0 -29 -27 -29h-143q-29 0 -29 29v147q0 31 29 31h141q29 0 29 -31zM305 473h-108q-29 0 -29 29l-31 1106q0 31 29 30h168q28 1 28 -30l-28 -1104q-2 -31 -29 -31z" glyph-name="exclam" horiz-adv-x="497" unicode="!"/><glyph d="M303 1147h-115q-27 0 -28 33l-23 428q-2 31 29 30h162q28 1 28 -30l-24 -428q0 -33 -29 -33zM766 1147h-115q-27 0 -28 33l-25 428q0 31 29 30h161q31 1 29 -30l-22 -428q-2 -33 -29 -33z" glyph-name="quotedbl" horiz-adv-x="954" unicode="&quot;"/><glyph d="M778 1026v23q0 37 -26 63t-60 25h-18q-37 0 -61 -26t-23 -62v-23q0 -38 26 -62t62 -24h18q34 0 58 24t24 62zM1264 909v-110q0 -29 -29 -29h-215q-36 0 -60 -26t-24 -62v-197q0 -33 -25 -32h-108q-25 0 -25 32v197q0 36 -26 62t-60 26h-18q-37 0 -61 -26t-23 -62v-197 q0 -33 -29 -32h-102q-31 0 -31 32v197q0 36 -28 62t-60 26h-178q-25 0 -25 29v110q0 31 25 31h180q34 0 60 25t26 61v23q0 37 -26 63t-60 25h-180q-25 0 -25 32v107q0 33 25 33h182q36 -1 60 25t24 63v211q0 31 31 30h102q29 0 29 -30v-211q0 -37 26 -63t62 -25h18 q35 -1 59 25t23 63v211q0 31 25 30h108q25 0 25 -30v-211q0 -37 28 -63t60 -25h211q29 0 29 -33v-107q0 -33 -29 -32h-213q-34 0 -60 -26t-26 -62v-23q0 -38 26 -62t60 -24h213q29 0 29 -31z" glyph-name="numbersign" horiz-adv-x="1400" unicode="#"/><glyph d="M883 506q0 -266 -246 -322q-41 -10 -41 -61v-90q0 -33 -27 -33h-112q-31 0 -31 33v104q0 47 -39 62q-88 35 -157 105t-89 136t-4 70l131 45q31 12 49 -29q76 -172 199 -172q72 0 120 40t48 112q0 113 -135 211l-250 166q-135 109 -135 247q0 250 217 312q45 12 45 63v101 q0 33 27 32h112q31 0 31 -32v-101q0 -51 45 -63q199 -55 238 -246q2 -10 -9 -18l-127 -58q-16 -8 -32 17q-55 90 -78 108q-45 45 -115 45t-118 -47t-48 -114t137 -154q217 -143 256 -182q138 -129 138 -287z" glyph-name="dollar" horiz-adv-x="1019" unicode="$"/><glyph d="M647 1161v176q0 57 -38 99t-93 43h-39q-57 0 -98 -41t-41 -101v-176q0 -57 41 -100t98 -43h39q55 0 93 43t38 100zM1720 297v178q0 57 -38 99t-93 42h-39q-55 0 -97 -42t-42 -99v-178q0 -57 42 -100t97 -43h39q55 0 93 43t38 100zM836 1348v-193q0 -127 -90 -221 t-216 -94h-88q-127 0 -217 92q-88 94 -88 223v193q0 131 89 222t216 91h88q126 0 216 -93t90 -220zM737 -23q-37 0 -28 37l460 1626q6 20 29 21h127q39 0 27 -39l-455 -1624q-6 -20 -29 -21h-131zM1911 485v-192q0 -129 -89 -222t-216 -94h-90q-126 -1 -216 93t-90 223v192 q0 131 89 223t217 91h90q127 1 216 -93t89 -221z" glyph-name="percent" horiz-adv-x="2045" unicode="%"/><glyph d="M715 403v277q0 40 -25 66t-61 26h-109q-72 0 -122 -59t-50 -144v-170q0 -85 45 -153t123 -68h23q84 0 130 78t46 147zM1143 162v-156q0 -29 -29 -29h-59q-133 0 -244 93q-115 -92 -236 -93h-65q-154 0 -264 113q-109 115 -109 277v135q0 272 117 340q33 18 33 40t-21 44 q-94 96 -94 264v139q0 129 101 231t229 101h96q129 0 229 -107q104 -104 105 -235v-66q0 -25 -31 -24h-160q-27 0 -26 14v62q0 67 -45 113t-109 46h-35q-63 0 -108 -47t-45 -112v-115q0 -84 43 -146t112 -61h576q25 0 24 -27v-153q0 -31 -24 -31h-90q-37 0 -62 -28t-24 -64 v-342q0 -60 43 -104t102 -44h41q29 1 29 -28z" glyph-name="ampersand" horiz-adv-x="1234" unicode="&amp;"/><glyph d="M303 1147h-115q-27 0 -28 33l-23 428q-2 31 29 30h162q28 1 28 -30l-24 -428q0 -33 -29 -33z" glyph-name="quotesingle" horiz-adv-x="493" unicode="'"/><glyph d="M362 766q0 -201 37 -468t97 -460q5 -10 -17 -10h-164q-8 0 -18 29q-160 481 -160 942q0 350 189 989q8 27 18 27h152q10 1 14 -3t2 -8q-150 -541 -150 -1038z" glyph-name="parenleft" horiz-adv-x="649" unicode="("/><glyph d="M514 799q0 -463 -162 -942q-10 -29 -18 -29h-160q-23 0 -18 10q55 176 93 456t38 500t-40 506t-110 506q-2 4 3 6t16 3h153q8 0 17 -27q188 -639 188 -989z" glyph-name="parenright" horiz-adv-x="649" unicode=")"/><glyph d="M559 1243q0 -14 14 -29l175 -186q6 -10 -5 -20l-108 -84q-8 -8 -19 2l-94 248q-10 28 -32 28t-35 -26l-115 -248q-4 -10 -18 4l-99 90q-14 14 -10 18l201 172q29 25 28 41q0 25 -49 29l-256 14q-6 0 0 21l47 131q6 16 21 8l209 -121q23 -12 35 -12q27 0 18 55l-51 273 q-2 4 3 7t13 3h131q23 0 19 -8l-64 -273q-2 -12 -2 -34t21 -23q12 0 34 12l224 125q14 8 18 -10l35 -135q4 -19 2 -19l-252 -14q-39 -2 -39 -39z" glyph-name="asterisk" horiz-adv-x="987" unicode="*"/><glyph d="M1040 840v-138q0 -31 -32 -30h-324v-346q0 -33 -33 -33h-129q-29 0 -28 33v346h-326q-31 0 -31 33v137q0 31 31 30h326v347q0 33 30 32h131q29 0 29 -32v-347h324q32 1 32 -32z" glyph-name="plus" horiz-adv-x="1175" unicode="+"/><glyph d="M369 272v-211q0 -20 -27 -81l-98 -240q-16 -41 -33 -41h-27q-37 0 -30 18l75 238q2 5 2 25t-21 35q-22 15 -44 16q-29 0 -29 30v211q0 29 29 29h172q31 0 31 -29z" glyph-name="comma" horiz-adv-x="505" unicode=","/><glyph d="M915 750v-175q0 -33 -28 -32h-723q-27 0 -27 32v175q0 41 27 41h723q28 0 28 -41z" glyph-name="hyphen" horiz-adv-x="1052" unicode="-"/><glyph d="M915 750v-175q0 -33 -28 -32h-723q-27 0 -27 32v175q0 41 27 41h723q28 0 28 -41z" glyph-name="hyphen" horiz-adv-x="1052" unicode="‐"/><glyph d="M373 274v-235q0 -39 -31 -39h-174q-31 0 -31 39v235q0 31 31 31h174q31 0 31 -31z" glyph-name="period" horiz-adv-x="509" unicode="."/><glyph d="M164 -23q-37 0 -27 37l461 1626q6 20 27 21h129q34 0 26 -39l-454 -1624q-6 -20 -29 -21h-133z" glyph-name="slash" horiz-adv-x="917" unicode="/"/><glyph d="M764 440v764q0 102 -56 179t-140 77t-140 -77q-55 -77 -55 -179v-764q0 -104 55 -181t139 -77q85 0 141 76t56 182zM977 1229v-819q0 -180 -120 -306t-294 -127h-8q-174 0 -297 127q-121 127 -121 306v819q0 178 121 305q123 127 297 127h8q172 0 293 -127t121 -305z" glyph-name="zero" horiz-adv-x="1114" unicode="0"/><glyph d="M522 1614v-1587q0 -27 -30 -27h-168q-27 0 -27 27v1177q0 20 -15 40t-42 20h-168q-27 0 -27 32v74q0 6 41 31q168 97 244 167t82 70h80q30 1 30 -24z" glyph-name="one" horiz-adv-x="659" unicode="1"/><glyph d="M948 1272v-96q0 -182 -182 -463q-74 -111 -311 -412q-33 -39 -33 -55q0 -49 51 -49h430q27 0 27 -27v-143q0 -27 -27 -27h-739q-27 0 -27 27v143q0 35 17 57q326 436 348 469q225 336 225 506v45q0 103 -50 167t-126 64t-127 -68q-51 -69 -51 -163v-30q0 -27 -27 -27 h-170q-31 0 -31 27v55q0 162 111 276t266 113h56q154 -1 262 -115t108 -274z" glyph-name="two" horiz-adv-x="1062" unicode="2"/><glyph d="M950 545v-178q0 -162 -108 -276t-264 -114h-66q-160 1 -267 127t-108 277v49q0 27 27 27h182q27 0 27 -27v-27q0 -69 47 -147t129 -78h22q78 0 127 72q41 66 41 149v170q0 83 -50 143t-122 60h-78q-23 0 -22 31v153q0 27 22 27h78q72 1 116 63t44 144v115q0 67 -46 113 t-110 46h-45q-63 0 -108 -47t-45 -112v-62q0 -14 -27 -14h-160q-31 0 -30 24v66q0 129 102 235q104 106 231 107h97q125 0 227 -102t102 -230v-139q0 -168 -94 -264q-20 -20 -20 -43t33 -41q116 -68 116 -297z" glyph-name="three" horiz-adv-x="1087" unicode="3"/><glyph d="M610 666v467q0 18 -13 35q-13 18 -33 18t-38 -33l-260 -465q-8 -14 -8 -33q0 -49 49 -49h248q55 1 55 60zM989 584v-131q0 -25 -26 -25h-82q-57 0 -58 -59v-342q0 -27 -28 -27h-158q-27 0 -27 27v342q0 59 -55 59h-485q-25 0 -25 25v161q0 43 21 76l516 907q23 41 34 41 h179q29 0 28 -24v-948q0 -55 58 -56h82q26 1 26 -26z" glyph-name="four" horiz-adv-x="1034" unicode="4"/><glyph d="M915 823v-504q1 -141 -83 -241t-222 -101h-168q-127 -1 -216 91t-89 223v127q0 31 27 31h168q27 0 26 -31v-19q0 -106 25 -155q37 -76 135 -76t144 68t47 163v306q0 260 -183 260q-111 0 -166 -129q-8 -20 -22 -21h-156q-37 0 -37 29v770q0 25 31 24h668q27 0 26 -24 v-154q0 -29 -26 -28h-441q-59 0 -59 -60v-252q0 -53 43 -53q14 0 23 6q119 59 188 60q131 1 224 -83t93 -227z" glyph-name="five" horiz-adv-x="1052" unicode="5"/><glyph d="M727 375v295q0 66 -46 112t-110 47h-49q-63 0 -108 -62t-45 -126v-266q0 -63 44 -125t109 -62h49q68 0 112 62t44 125zM952 649v-282q0 -177 -106 -283t-264 -107h-70q-154 0 -264 114t-111 276v905q0 162 111 276t264 113h47q174 0 272 -117q94 -106 95 -282 q0 -25 -27 -25h-162q-29 0 -28 25v47q-1 67 -49 113t-111 46h-23q-66 0 -116 -63t-52 -137v-285q0 -13 14 -31t28 -18q15 0 28 12q53 50 89 64t104 14q147 0 239 -106t92 -269z" glyph-name="six" horiz-adv-x="1089" unicode="6"/><glyph d="M831 1614v-133q0 -23 -12 -72l-327 -1374q-10 -35 -27 -35h-201q-16 0 -14 20l328 1342q4 25 -8 45t-38 20h-462q-25 0 -25 27v160q0 25 25 24h733q28 1 28 -24z" glyph-name="seven" horiz-adv-x="923" unicode="7"/><glyph d="M731 348v215q0 76 -54 130t-128 55h-8q-74 0 -126 -54t-53 -131v-215q0 -78 52 -133t127 -55h8q74 0 128 55t54 133zM721 1100v219q0 66 -45 111t-109 45h-45q-63 0 -106 -45t-43 -111v-219q0 -66 43 -111t106 -45h45q63 0 109 45q45 45 45 111zM948 506v-150 q0 -160 -106 -268q-104 -111 -256 -111h-82q-152 0 -260 111q-106 113 -107 268v150q0 178 133 293q20 18 21 41q0 23 -19 41q-109 119 -108 266v135q0 158 106 266q106 113 260 113h25q151 0 259 -113t108 -266v-135q0 -156 -107 -268q-18 -23 -18 -43t20 -35 q131 -113 131 -295z" glyph-name="eight" horiz-adv-x="1085" unicode="8"/><glyph d="M731 1016v225q0 75 -52 145t-130 70h-12q-78 0 -130 -70t-53 -145v-254q0 -78 54 -135t129 -57h12q76 1 129 71t53 150zM948 1190v-830q0 -160 -110 -272q-111 -111 -267 -111h-45q-158 0 -264 112t-106 271v35q0 25 26 25h160q27 0 27 -25q0 -94 50 -155q50 -62 128 -62 t131 55t53 134v303q0 47 -43 47q-16 0 -43 -27q-41 -34 -84 -56t-115 -22q-125 0 -217 94t-92 224v342q0 158 114 274t267 115h41q158 0 270 -135q119 -139 119 -336z" glyph-name="nine" horiz-adv-x="1085" unicode="9"/><glyph d="M373 240v-203q0 -33 -31 -33h-174q-31 0 -31 33v203q0 29 31 28h174q31 1 31 -28zM373 1024v-205q0 -31 -31 -31h-174q-31 0 -31 31v205q0 27 31 27h174q31 0 31 -27z" glyph-name="colon" horiz-adv-x="509" unicode=":"/><glyph d="M369 242v-201q0 -16 -27 -76l-98 -227q-14 -39 -33 -39h-27q-37 0 -30 16l75 226q2 5 2 23t-21 33q-22 15 -44 15q-29 0 -29 29v201q0 27 29 26h172q31 1 31 -26zM373 1024v-201q0 -33 -31 -32h-174q-31 0 -31 32v201q0 27 31 27h174q31 0 31 -27z" glyph-name="semicolon" horiz-adv-x="509" unicode=";"/><glyph d="M408 692q0 -29 16 -45l367 -387q20 -23 0 -43l-89 -98q-23 -20 -43 0l-522 551q-23 23 0 45l518 547q20 20 43 -2q100 -90 101 -117q0 -13 -8 -21l-367 -385q-16 -16 -16 -45z" glyph-name="less" horiz-adv-x="935" unicode="&lt;"/><glyph d="M985 469v-145q0 -27 -29 -27h-792q-27 0 -27 27v145q0 33 27 33h792q29 0 29 -33zM985 1004v-146q0 -27 -29 -27h-792q-27 0 -27 27v146q0 33 27 32h792q29 1 29 -32z" glyph-name="equal" horiz-adv-x="1122" unicode="="/><glyph d="M145 1122q-8 8 -8 27t49 62t54 49q23 23 41 2l518 -547q23 -22 0 -45l-523 -551q-20 -20 -40 0l-91 98q-18 20 0 43l367 387q16 16 16 45q4 29 -16 45z" glyph-name="greater" horiz-adv-x="935" unicode=">"/><glyph d="M582 236v-199q0 -33 -31 -33h-172q-31 0 -31 33v199q0 27 31 26h172q31 1 31 -26zM938 1272v-53q0 -157 -83 -301t-224 -246q-61 -45 -62 -107v-82q0 -29 -26 -28h-156q-27 0 -27 28v156q0 45 39 78q166 141 217 207q100 127 101 278v45q0 103 -49 167t-125 64t-128 -68 q-52 -69 -53 -163v-30q0 -27 -24 -27h-170q-31 0 -31 27v55q0 162 111 276t264 113h55q155 -1 263 -115t108 -274z" glyph-name="question" unicode="?"/><glyph d="M1155 788v209q0 76 -68 76q-97 0 -205 -116t-108 -218q0 -158 144 -157q88 0 162 61t75 145zM1810 967q0 -256 -154 -411t-372 -155q-43 0 -91 48t-48 143q-45 -88 -128 -133t-153 -45q-128 0 -196 89t-68 243t180 325q182 172 340 172q193 0 193 -205v-401q0 -63 51 -64 q98 0 177 115t79 213q0 291 -153 464t-445 173t-485 -209q-193 -205 -193 -508t209 -507t498 -203q53 0 168 26t134 8q9 -8 9 -24t-2 -23v-14q0 -117 -309 -117q-377 0 -637 235q-260 234 -260 612t252 634q256 256 626 256q324 0 551 -208t227 -529z" glyph-name="at" horiz-adv-x="1964" unicode="@"/><glyph d="M540 1309q-40 0 -48 -70l-89 -557q-6 -37 16 -66t58 -28h133q37 0 61 28q23 29 17 68l-96 555q-12 70 -52 70zM1024 0h-184q-18 0 -27 39l-49 250q-16 78 -82 78h-250q-76 0 -88 -78l-43 -252q-10 -37 -33 -37h-180q-23 0 -20 27l303 1577q6 35 28 34h293q21 1 29 -36 l323 -1575q6 -27 -20 -27z" glyph-name="A" horiz-adv-x="1114" unicode="A"/><glyph d="M774 477q0 109 -76 197t-168 88h-79q-35 0 -62 -26t-27 -62v-375q0 -37 27 -63t62 -25h112q91 1 151 79t60 187zM745 1198q0 94 -59 160t-145 65h-84q-37 -1 -63 -27t-25 -63v-289q-1 -38 25 -64t63 -26h84q86 0 145 78q59 72 59 166zM1032 465q0 -189 -138 -327 t-335 -138h-391q-31 0 -31 33v1575q0 31 31 30h354q221 0 344 -116q117 -106 117 -292t-137 -296q-31 -26 -31 -56t31 -55q186 -131 186 -358z" glyph-name="B" horiz-adv-x="1146" unicode="B"/><glyph d="M1014 510v-88q0 -182 -125 -313t-303 -132h-19q-178 1 -304 133t-126 312v795q0 186 125 315t305 129h19q176 0 299 -131q125 -127 125 -313v-70q0 -31 -29 -31h-172q-31 0 -31 31v22q0 109 -55 187q-51 80 -140 80t-149 -79t-61 -188v-714q0 -106 59 -189 q62 -78 150 -78t147 80t59 187v55q0 31 27 31h170q29 0 29 -31z" glyph-name="C" horiz-adv-x="1150" unicode="C"/><glyph d="M774 467v698q0 111 -78 189t-180 78h-63q-35 0 -62 -26t-26 -63v-1050q1 -37 27 -65t61 -27h63q102 0 180 80t78 186zM1004 1194v-750q0 -182 -127 -313t-302 -131h-409q-29 0 -29 33v1575q0 31 29 30h409q177 0 303 -131t126 -313z" glyph-name="D" horiz-adv-x="1140" unicode="D"/><glyph d="M891 188v-155q0 -33 -31 -33h-692q-31 0 -31 33v1575q0 31 31 30h672q31 0 30 -30v-148q0 -33 -30 -33h-387q-37 1 -63 -25t-25 -63v-288q-1 -37 27 -63t61 -25h292q31 0 31 -29v-146q0 -31 -31 -30h-292q-35 0 -62 -26t-26 -62v-361q-1 -37 25 -63t63 -27h407 q31 0 31 -31z" glyph-name="E" horiz-adv-x="1005" unicode="E"/><glyph d="M872 1608v-148q0 -33 -30 -33h-391q-33 1 -61 -25t-28 -63v-288q0 -37 26 -63t63 -25h299q31 0 30 -29v-146q0 -31 -30 -30h-304q-36 0 -60 -27t-24 -61v-637q0 -33 -28 -33h-166q-31 0 -31 33v1575q0 31 31 30h674q30 1 30 -30z" glyph-name="F" horiz-adv-x="987" unicode="F"/><glyph d="M1016 768v-735q0 -33 -29 -33h-31q-18 0 -32 43l-11 27q-23 59 -43 59t-57 -53q-72 -98 -211 -99h-37q-190 -1 -309 131t-119 322v784q0 184 125 316t303 131h19q176 0 300 -131t124 -316v-67q0 -33 -29 -33h-158q-10 0 -20 11t-10 22v22q0 111 -62 187q-61 80 -149 80 t-148 -79t-61 -188v-706q0 -113 53 -187t163 -73q110 0 168 75t58 185v72q0 37 -25 63t-61 25h-84q-31 0 -31 32v113q0 33 31 33h344q10 0 20 -11q9 -12 9 -22z" glyph-name="G" horiz-adv-x="1153" unicode="G"/><glyph d="M985 1608v-1575q0 -33 -29 -33h-172q-29 0 -28 33v579q0 37 -26 64t-62 26h-219q-37 0 -61 -26t-23 -64v-579q0 -33 -27 -33h-172q-29 0 -29 33v1575q0 31 29 30h172q27 0 27 -30v-596q1 -37 25 -63t59 -25h219q36 0 62 26t26 62v596q0 31 28 30h172q29 1 29 -30z" glyph-name="H" horiz-adv-x="1122" unicode="H"/><glyph d="M393 1608v-1575q0 -33 -28 -33h-177q-29 0 -28 33v1575q0 31 28 30h177q28 1 28 -30z" glyph-name="I" horiz-adv-x="552" unicode="I"/><glyph d="M555 1608v-1280q0 -148 -88 -238t-231 -90h-185q-29 0 -28 29v178q0 31 28 31h129q57 0 101 43q43 43 43 104v1223q0 31 24 30h176q31 1 31 -30z" glyph-name="J" horiz-adv-x="692" unicode="J"/><glyph d="M1057 0h-209q-12 0 -27 39l-252 666q-16 41 -46 41t-48 -37l-92 -166q-14 -23 -14 -54v-462q0 -27 -27 -27h-180q-25 0 -25 27v1587q0 25 25 24h180q27 0 27 -24v-514q0 -61 34 -62q39 0 64 45l283 512q22 43 32 43h205q22 0 14 -12l-313 -559q-16 -28 -6 -59l387 -992 q6 -16 -12 -16z" glyph-name="K" horiz-adv-x="1136" unicode="K"/><glyph d="M872 184v-157q0 -27 -24 -27h-686q-25 0 -25 27v1587q0 25 25 24h180q29 0 29 -24v-1315q1 -35 25 -59t57 -25h395q24 0 24 -31z" glyph-name="L" horiz-adv-x="917" unicode="L"/><glyph d="M1341 1614v-1587q0 -27 -26 -27h-158q-29 0 -29 27v958q0 59 -43 59q-35 0 -47 -51l-221 -958q-10 -35 -29 -35h-92q-18 0 -28 35l-213 960q-12 47 -43 47q-20 0 -38 -17t-18 -36v-962q0 -27 -28 -27h-166q-25 0 -25 27v1587q0 25 25 24h315q23 0 33 -41l180 -800 q18 -80 55 -80t54 80l168 811q6 31 26 30h322q26 1 26 -24z" glyph-name="M" horiz-adv-x="1478" unicode="M"/><glyph d="M1053 1608v-1581q0 -27 -27 -27h-160q-16 0 -32 35l-392 901q-16 35 -41 35q-45 0 -45 -51v-893q0 -27 -28 -27h-166q-25 0 -25 27v1585q0 27 25 26h166q27 0 45 -43l377 -870q18 -45 52 -45t34 63v865q0 31 30 30h160q27 1 27 -30z" glyph-name="N" horiz-adv-x="1189" unicode="N"/><glyph d="M786 449v735q0 102 -59 180t-144 78t-145 -78t-61 -180v-735q0 -100 59 -179q60 -74 146 -74t145 74q59 79 59 179zM1022 1239v-836q0 -174 -120 -300t-292 -126h-63q-172 0 -291 125t-119 301v836q0 178 120 300t290 122h63q172 0 292 -124t120 -298z" glyph-name="O" horiz-adv-x="1159" unicode="O"/><glyph d="M766 1090v145q0 82 -58 139t-139 58h-110q-33 0 -61 -25t-27 -59v-373q-1 -35 27 -60t61 -24h110q80 0 139 58q58 59 58 141zM997 1212v-94q1 -176 -117 -300t-288 -124h-143q-35 0 -60 -26t-24 -62v-579q0 -27 -27 -27h-176q-25 0 -25 27v1587q0 25 25 24h430 q170 0 287 -125q118 -121 118 -301z" glyph-name="P" horiz-adv-x="1089" unicode="P"/><glyph d="M784 434v772q0 102 -57 178t-144 76t-145 -77t-59 -177v-772q0 -102 58 -179q57 -77 145 -77t145 76t57 180zM1022 1237v-829q0 -154 -95 -273t-253 -153l-35 -304q-4 -43 -31 -43h-49q-27 0 -31 43l-36 306q-158 30 -256 148t-99 276v829q0 174 119 299t291 125h63 q172 0 292 -126t120 -298z" glyph-name="Q" horiz-adv-x="1159" unicode="Q"/><glyph d="M784 1104v135q0 84 -58 141t-138 58h-158q-35 0 -55 -26t-21 -62v-357q0 -35 25 -59t57 -25h152q80 -1 138 57t58 138zM1008 0h-179q-14 0 -26 37l-211 618q-23 61 -68 62h-88q-38 0 -60 -25t-22 -61v-604q0 -27 -26 -27h-166q-25 0 -25 27v1587q0 25 25 24h418 q174 0 292 -114t119 -299v-82q0 -135 -55 -213l-148 -154q-18 -24 -4 -57l238 -703q6 -16 -14 -16z" glyph-name="R" horiz-adv-x="1114" unicode="R"/><glyph d="M999 386q1 -186 -121 -300t-317 -113q-307 0 -430 308q-14 37 -39 122q-8 25 14 31l152 53q27 8 35 -18q29 -100 76 -172q80 -115 185 -115q104 0 162 58t58 157q0 127 -168 277q-61 53 -179 154t-130 112q-168 168 -168 340t115 276q116 104 278 105t272 -101t154 -260 q8 -23 -16 -32l-131 -45q-23 -11 -33 15t-29 67q-84 178 -213 178q-80 1 -136 -65t-56 -150q0 -102 174 -246l319 -274q172 -176 172 -362z" glyph-name="S" horiz-adv-x="1091" unicode="S"/><glyph d="M985 1614v-146q0 -27 -29 -26h-251q-31 0 -58 -27t-26 -59v-1329q0 -27 -23 -27h-168q-27 0 -27 27v1329q-1 34 -23 60t-56 26h-252q-27 0 -27 26v146q0 25 27 24h884q29 1 29 -24z" glyph-name="T" horiz-adv-x="1030" unicode="T"/><glyph d="M1026 1614v-1211q0 -176 -124 -301t-296 -125h-49q-172 0 -297 125q-123 127 -123 301v1211q0 25 25 24h176q23 0 22 -24v-1176q0 -104 66 -182t152 -78t152 78t65 182v1176q0 25 26 24h176q29 1 29 -24z" glyph-name="U" horiz-adv-x="1163" unicode="U"/><glyph d="M655 0h-241q-20 0 -27 33l-319 1575q-6 31 14 30h172q25 0 27 -20l211 -1118q10 -53 40 -54q37 0 48 54l211 1118q2 20 28 20h170q16 1 10 -30l-313 -1575q-6 -33 -31 -33z" glyph-name="V" horiz-adv-x="1069" unicode="V"/><glyph d="M1249 0h-168q-20 0 -26 33l-172 905q-18 86 -58 86q-35 0 -51 -86l-172 -905q-6 -33 -24 -33h-168q-20 0 -23 33l-295 1585q-2 10 4 15t21 5h157q20 0 27 -30l162 -899q2 -15 21 -33t38 -19q29 0 37 52l168 897q6 33 25 32h143q20 0 27 -32l176 -885q10 -47 50 -47t50 49 l121 887q4 29 27 28h159q31 0 27 -20l-256 -1585q-6 -33 -27 -33z" glyph-name="W" horiz-adv-x="1622" unicode="W"/><glyph d="M1069 0h-197q-10 0 -26 41l-238 508q-16 29 -40 29t-36 -29l-221 -510q-14 -39 -30 -39h-197q-10 0 -14 3t-2 11l360 817q18 41 0 82l-317 713q-6 12 12 12h194q14 0 31 -36l184 -422q12 -29 38 -29t38 29l174 422q16 37 33 36h197q18 0 14 -12l-321 -715q-19 -38 -3 -77 l381 -820q2 -14 -14 -14z" glyph-name="X" horiz-adv-x="1153" unicode="X"/><glyph d="M674 618v-591q0 -27 -27 -27h-178q-27 0 -27 27v591q0 33 -14 64l-383 942q-2 8 3 11t18 3h198q14 0 29 -36l213 -572q22 -53 58 -53t54 55l179 572q10 35 26 34h199q10 0 14 -3t2 -11l-350 -942q-14 -35 -14 -64z" glyph-name="Y" horiz-adv-x="1085" unicode="Y"/><glyph d="M954 188v-161q0 -27 -26 -27h-791q-23 0 -22 27v116q0 39 8 56l559 1165q8 14 8 32t-19 32t-40 14h-447q-27 0 -26 22v150q0 25 26 24h740q27 0 26 -24v-117q0 -39 -8 -55l-555 -1153q-8 -14 -8 -29q0 -49 51 -49h498q26 0 26 -23z" glyph-name="Z" horiz-adv-x="1069" unicode="Z"/><glyph d="M502 -109v-75q0 -33 -29 -33h-305q-31 0 -31 33v2007q0 10 11 21t20 11h305q29 0 29 -32v-78q0 -31 -29 -31h-84q-66 0 -65 -67v-1655q0 -68 65 -68h84q29 0 29 -33z" glyph-name="bracketleft" horiz-adv-x="638" unicode="["/><glyph d="M754 -23h-133q-23 0 -29 21l-455 1624q-8 39 27 39h129q20 -1 26 -21l461 -1626q10 -37 -26 -37z" glyph-name="backslash" horiz-adv-x="917" unicode="\"/><glyph d="M502 1823v-2007q0 -33 -31 -33h-305q-29 0 -29 33v75q0 33 29 33h84q66 0 65 68v1655q0 68 -65 67h-84q-29 0 -29 31v78q0 33 29 32h305q7 0 19 -11t12 -21z" glyph-name="bracketright" horiz-adv-x="638" unicode="]"/><glyph d="M811 1270l-76 -86q-12 -14 -26 0l-234 270l-235 -276q-14 -14 -27 0l-76 90q-12 16 0 28l324 375q14 14 26 0l324 -371q16 -14 0 -30z" glyph-name="asciicircum" horiz-adv-x="954" unicode="^"/><glyph d="M1061 -215v-119q0 -35 -29 -35h-1001q-31 0 -31 35v119q0 43 31 43h1001q29 0 29 -43z" glyph-name="underscore" horiz-adv-x="1060" unicode="_"/><glyph d="M784 1395l-4 -4q-12 -23 -47 -7l-504 226q-20 8 0 45l76 141q16 33 41 10l428 -362q24 -22 10 -49z" glyph-name="grave" horiz-adv-x="933" unicode="`"/><glyph d="M647 371v204q0 57 -53 58q-12 0 -25 -6q-139 -74 -182 -115q-88 -80 -88 -190q0 -137 127 -138q70 0 146 52t75 135zM840 2h-138q-23 0 -45 82q-16 29 -43 29q-12 0 -90 -68t-153 -68q-129 0 -204 79t-75 218v48q0 158 158 284q43 33 295 178q102 59 102 107v94 q0 53 -38 94t-89 41h-90q-51 0 -90 -41t-39 -94v-35q0 -29 -29 -28h-137q-29 0 -29 28v43q0 119 82 200t201 81h170q117 0 198 -80t81 -201v-862q-1 -10 22 -106q4 -23 -20 -23z" glyph-name="a" horiz-adv-x="974" unicode="a"/><glyph d="M674 299v639q0 55 -35 91t-88 36h-78q-29 0 -77 -37t-48 -90v-639q0 -53 49 -92q41 -39 76 -39h78q53 0 88 38t35 93zM883 1044v-841q0 -92 -64 -158q-61 -68 -145 -68h-68q-63 0 -110 35q-20 14 -54 56t-51 43q-25 0 -67 -97q-8 -14 -23 -14h-135q-29 0 -29 31v1601 q0 29 29 29h149q29 0 29 -29v-426q0 -68 27 -67q14 0 96 61t139 62h68q86 0 148 -64t61 -154z" glyph-name="b" horiz-adv-x="1019" unicode="b"/><glyph d="M891 385v-49q0 -147 -100 -254q-102 -104 -244 -105h-66q-141 0 -243 105q-100 106 -101 254v588q0 150 99 250q100 100 245 100h66q145 0 245 -100t99 -250v-33q0 -29 -29 -29h-141q-29 0 -29 29q0 82 -50 143q-50 62 -118 62t-118 -62t-50 -143v-516q0 -87 47 -143 t121 -56t121 56t47 143v10q0 29 29 29h141q29 0 29 -29z" glyph-name="c" horiz-adv-x="1028" unicode="c"/><glyph d="M668 299v639q0 35 -40 81t-87 46h-74q-51 0 -89 -37t-38 -90v-639q0 -53 38 -92t89 -39h74q49 0 88 51t39 80zM872 1632v-1601q0 -31 -28 -31h-146q-29 0 -28 31q0 55 -37 55q-25 0 -62 -37t-63 -53q-37 -18 -100 -19h-62q-86 0 -147 68t-62 158v841q-1 90 61 154t148 64 h62q66 0 148 -54t91 -53q23 0 23 59v418q0 29 28 29h146q28 0 28 -29z" glyph-name="d" horiz-adv-x="1009" unicode="d"/><glyph d="M680 799v155q0 56 -36 94t-89 37h-98q-55 1 -92 -37t-37 -94v-155q0 -59 55 -60h242q55 1 55 60zM870 330q0 -158 -93 -255t-240 -98h-66q-152 -1 -243 97t-91 254v596q0 152 80 251t211 99h150q125 0 206 -113q82 -109 82 -266v-281q0 -31 -28 -30h-455q-55 0 -55 -58 v-219q0 -55 37 -96t92 -41h84q53 0 92 41t39 96v23q0 31 28 30h142q28 1 28 -30z" glyph-name="e" horiz-adv-x="1007" unicode="e"/><glyph d="M690 1632v-110q0 -29 -28 -29h-62q-57 0 -98 -41t-41 -100v-58q0 -57 55 -57h125q29 0 29 -29v-129q0 -29 -29 -28h-125q-57 0 -57 -58v-964q0 -29 -29 -29h-145q-29 0 -29 29v964q0 57 -53 58h-82q-29 0 -29 28v129q0 29 29 29h82q55 0 55 57v121q0 104 70 175t164 71 h170q28 0 28 -29z" glyph-name="f" horiz-adv-x="757" unicode="f"/><glyph d="M805 -113q0 45 -45 82t-131 37h-166q-55 0 -95 -33t-40 -82t40 -87t95 -37h213q53 -1 91 37t38 83zM653 631v311q0 59 -41 100t-96 41h-27q-55 0 -96 -41t-41 -100v-311q0 -59 41 -101t96 -41h27q55 -1 96 41t41 101zM848 649q0 -133 -90 -228t-219 -95h-113 q-37 0 -66 -32q-28 -32 -28 -69t28 -65t66 -29h221q340 0 340 -240q0 -119 -83 -189t-234 -71h-291q-115 -1 -178 49t-63 112t32 102q10 10 54 40t44 48t-53 66t-53 108t33 90q10 8 61 42t51 58q0 25 -31 47q-125 94 -124 256v307q0 131 90 226q92 92 221 92h76 q117 0 233 -121q16 -16 38 -16t34 24q31 63 90 86q35 12 35 -28v-136q0 -23 -13 -24q-4 -2 -53 2q-66 6 -65 -60l10 -77v-275z" glyph-name="g" horiz-adv-x="1054" unicode="g"/><glyph d="M852 1096v-1067q0 -29 -29 -29h-141q-29 0 -29 29v895q0 139 -125 139q-74 0 -131 -53t-57 -129v-852q0 -29 -29 -29h-145q-29 0 -29 29v1603q0 29 29 29h145q29 0 29 -29v-463q0 -47 49 -47q10 0 92 70t168 70h41q68 0 115 -48t47 -118z" glyph-name="h" horiz-adv-x="989" unicode="h"/><glyph d="M358 1208v-1179q0 -29 -28 -29h-142q-29 0 -28 29v1179q0 29 28 29h142q28 0 28 -29zM358 1632v-151q0 -31 -28 -31h-142q-29 0 -28 31v151q0 29 28 29h142q28 0 28 -29z" glyph-name="i" horiz-adv-x="518" unicode="i"/><glyph d="M381 1210v-1353q0 -96 -65 -161t-152 -65h-180q-29 0 -29 31v135q0 31 29 31h63q53 0 92 40t39 95v1247q0 31 29 31h145q29 0 29 -31zM381 1632v-151q0 -29 -29 -29h-145q-29 0 -29 29v151q0 29 29 29h145q29 0 29 -29z" glyph-name="j" horiz-adv-x="540" unicode="j"/><glyph d="M911 0h-190q-8 0 -14 20l-175 541q-8 33 -36 33t-43 -25l-82 -118q-29 -41 -29 -99v-323q0 -29 -29 -29h-147q-29 0 -29 29v1603q0 29 29 29h147q29 0 29 -29v-801q0 -61 31 -61q25 0 49 41l244 401q14 25 34 25h148q20 0 12 -14l-209 -359q-20 -39 -6 -88l270 -768 q2 -8 -4 -8z" glyph-name="k" horiz-adv-x="983" unicode="k"/><glyph d="M369 1632v-1603q0 -29 -29 -29h-152q-29 0 -28 29v1603q0 29 28 29h152q29 0 29 -29z" glyph-name="l" horiz-adv-x="528" unicode="l"/><glyph d="M1358 1057v-1026q0 -31 -29 -31h-145q-29 0 -29 31v903q0 152 -111 151q-59 0 -127 -59t-67 -119v-876q0 -31 -29 -31h-141q-29 0 -29 31v903q0 158 -112 158q-66 0 -129 -52q-72 -53 -72 -118v-891q0 -31 -29 -31h-143q-29 0 -29 31v1190q0 31 29 30h143q29 0 29 -30 v-21q0 -49 31 -49q25 0 125 61q100 62 164 62t94 -16q31 -16 56 -64q24 -47 48 -47t112 63q88 64 182 64q92 0 150 -60t58 -157z" glyph-name="m" horiz-adv-x="1495" unicode="m"/><glyph d="M864 1057v-1026q0 -31 -28 -31h-146q-29 0 -28 31v921q0 139 -115 140q-80 0 -144 -56q-63 -56 -63 -106v-899q0 -31 -29 -31h-145q-29 0 -29 31v1190q0 31 29 30h145q29 0 29 -30v-29q0 -51 27 -51q14 0 120 65q105 68 185 68t136 -60t56 -157z" glyph-name="n" horiz-adv-x="1001" unicode="n"/><glyph d="M647 301v647q0 60 -38 102t-93 42h-49q-55 0 -96 -42t-41 -102v-647q0 -57 41 -101t96 -44h49q55 0 93 44t38 101zM836 958v-661q0 -131 -90 -225t-216 -95h-88q-127 0 -217 93q-88 94 -88 227v661q0 132 89 224t216 92h88q126 0 216 -94t90 -222z" glyph-name="o" horiz-adv-x="972" unicode="o"/><glyph d="M649 293v674q0 139 -125 139q-56 0 -118 -40t-62 -93v-684q0 -57 64 -96q57 -39 116 -39q125 0 125 139zM856 971v-664q0 -143 -66 -230t-184 -87q-53 0 -108 39t-81 39q-25 0 -49 -23t-24 -51v-332q0 -31 -29 -31h-149q-29 0 -29 31v1559q0 31 29 30h153q8 0 19 -16 q27 -43 59 -43q31 0 89 41t120 41q106 0 178 -85t72 -218z" glyph-name="p" horiz-adv-x="993" unicode="p"/><glyph d="M649 299v674q0 55 -60 94t-120 39q-127 0 -127 -139v-664q0 -80 49 -111q49 -30 109 -22t104 42q45 34 45 87zM850 1221v-1559q0 -31 -29 -31h-143q-29 0 -29 31v346q0 70 -74 70q-20 0 -78 -44t-112 -44q-111 0 -179 92t-69 235v654q0 135 69 219t179 84q57 0 115 -40 t92 -40q35 0 63 41q10 16 19 16h147q29 1 29 -30z" glyph-name="q" horiz-adv-x="987" unicode="q"/><glyph d="M645 1245v-182q0 -17 -6 -25t-38 -5t-50 3q-207 0 -207 -182v-823q0 -31 -29 -31h-149q-29 0 -29 31v1190q0 31 29 30h149q29 0 29 -30v-35q0 -63 33 -64q23 0 67 39l60 58q53 47 97 54t44 -28z" glyph-name="r" horiz-adv-x="735" unicode="r"/><glyph d="M870 307q0 -166 -101 -248t-249 -82t-256 82q-109 82 -139 201q-10 45 -10 49t10 8l135 52l19 6q4 2 7 -4t29 -61t62 -95q53 -53 123 -53t120 39t52 112q0 115 -135 213l-252 168q-135 110 -135 260t93 235t245 85t251 -73q100 -73 125 -191q4 -12 -6 -17l-127 -59 q-18 -10 -35 16q-55 88 -75 109q-47 47 -115 47t-118 -48q-48 -48 -48 -114t137 -158q209 -141 256 -184q137 -129 137 -295z" glyph-name="s" horiz-adv-x="983" unicode="s"/><glyph d="M711 147v-118q0 -29 -29 -29h-217q-90 0 -148 65q-57 65 -57 177v753q0 57 -53 58h-86q-29 0 -29 30v127q0 31 29 31h86q55 0 55 57v207q0 31 29 31h145q27 0 27 -31v-207q0 -57 55 -57h164q29 0 29 -31v-127q0 -31 -29 -30h-162q-57 0 -57 -58v-671q0 -145 127 -146h92 q29 0 29 -31z" glyph-name="t" horiz-adv-x="802" unicode="t"/><glyph d="M858 1223v-1192q0 -29 -29 -29h-145q-16 0 -29 33q-27 70 -75 69q-36 0 -94 -63t-105 -64h-76q-59 0 -115 66q-53 66 -53 139v1041q0 29 29 28h145q29 0 29 -28v-877q0 -68 38 -112t99 -44t121 48q59 49 59 114v871q0 29 29 28h143q29 1 29 -28z" glyph-name="u" horiz-adv-x="995" unicode="u"/><glyph d="M530 0h-182q-14 0 -20 23l-260 1191q-6 37 28 37h137q23 0 27 -22l141 -754q14 -70 48 -69q25 0 40 67l162 756q6 23 29 22h125q39 0 29 -37l-283 -1189q-2 -25 -21 -25z" glyph-name="v" horiz-adv-x="901" unicode="v"/><glyph d="M1075 0h-137q-16 0 -23 23l-127 673q-14 74 -55 74q-33 0 -49 -74l-135 -671q-6 -25 -23 -25h-174q-12 6 -16 23l-268 1191q-10 37 28 37h148q18 0 22 -22l144 -631q14 -63 49 -63q29 0 43 63l145 631q6 23 27 22h112q20 0 27 -22l150 -635q16 -66 43 -66q35 0 49 68 l127 633q4 23 20 22h135q39 0 29 -37l-260 -1189q-4 -25 -31 -25z" glyph-name="w" horiz-adv-x="1435" unicode="w"/><glyph d="M858 0h-151q-18 0 -25 16l-174 359q-18 37 -47 37t-43 -39l-162 -357q-6 -16 -23 -16h-143q-33 0 -27 23l281 606q20 41 -2 88l-248 500q-8 14 -8 24t27 10h137q18 0 24 -12l136 -289q26 -51 54 -51t52 51l133 289q10 12 25 12h135q39 0 25 -30l-252 -504q-21 -39 2 -88 l290 -609q8 -20 -16 -20z" glyph-name="x" horiz-adv-x="942" unicode="x"/><glyph d="M92 -369q-29 0 -29 31v133q0 29 29 29h37q93 0 145 72t52 151v21l-281 1146q-8 37 29 37h137q23 0 29 -22l163 -772q12 -59 48 -60q37 0 49 60l157 774q2 20 25 20h137q37 0 29 -37l-291 -1169q-63 -264 -170 -354q-72 -59 -211 -60h-84z" glyph-name="y" horiz-adv-x="915" unicode="y"/><glyph d="M872 174v-143q0 -31 -28 -31h-723q-29 0 -29 31v116q0 43 17 72l473 748q12 18 12 39q0 53 -66 53h-360q-29 0 -29 28v136q0 29 29 28h668q29 0 28 -28v-111q0 -49 -20 -82l-459 -737q-10 -16 -10 -35q0 -55 61 -55h408q28 0 28 -29z" glyph-name="z" horiz-adv-x="987" unicode="z"/><glyph d="M692 -92v-80q0 -14 -16 -14h-70q-110 0 -186 76t-76 192v426q0 80 -56 161t-134 81q-16 0 -17 16v88q0 16 17 16q78 0 134 81t56 161v426q0 115 77 193t185 77h70q16 0 16 -16v-82q0 -18 -16 -18h-29q-57 0 -98 -42t-41 -104v-448q0 -154 -135 -240q-31 -20 -31 -42 t35 -40q59 -27 100 -104q35 -74 35 -150v-454q0 -60 41 -102t98 -42h25q16 0 16 -16z" glyph-name="braceleft" horiz-adv-x="829" unicode="{"/><glyph d="M322 1860v-2059q0 -31 -29 -30h-105q-29 0 -28 30v2059q0 31 28 30h105q29 1 29 -30z" glyph-name="bar" horiz-adv-x="481" unicode="|"/><glyph d="M692 854v-88q0 -16 -16 -16q-80 0 -136 -81t-57 -161v-426q-1 -115 -77 -192t-183 -76h-69q-16 0 -17 14v80q0 16 17 16h22q59 0 100 42t41 102v454q0 76 38 152t98 102q35 16 35 39t-31 43q-135 86 -135 240v448q0 62 -41 104t-99 42h-28q-16 0 -17 18v82q0 16 17 16h69 q109 0 185 -78t75 -192v-426q1 -80 57 -161t136 -81q16 0 16 -16z" glyph-name="braceright" horiz-adv-x="829" unicode="}"/><glyph d="M461 1468q-92 0 -170 -129q-18 -33 -39 -57q-12 -12 -68 33q-55 47 -47 63q74 129 133 185q84 82 184 82t237 -83q138 -83 215 -83t151 116q6 12 37 54q12 13 69 -31t47 -64q-72 -121 -123 -172q-84 -78 -177 -78q-92 0 -242 82t-207 82z" glyph-name="asciitilde" horiz-adv-x="1349" unicode="~"/><glyph d="M154 1233v147q0 29 28 29h144q27 0 26 -29v-147q0 -29 -26 -29h-144q-28 0 -28 29zM193 936h110q25 0 29 -29l30 -1106q0 -31 -28 -30h-168q-29 -1 -29 30l29 1104q0 31 27 31z" glyph-name="exclamdown" horiz-adv-x="497" unicode="¡"/><glyph d="M891 575v-47q0 -117 -69 -212t-175 -128q-41 -16 -41 -63v-92q0 -33 -26 -33h-113q-31 0 -31 33v88q0 51 -41 63q-111 31 -186 127q-72 96 -72 217v584q0 121 72 214t182 122q14 4 33 16q12 12 12 43v99q0 33 27 32h112q31 0 31 -32v-99q0 -49 43 -61q106 -33 174 -125 t68 -209v-35q0 -29 -29 -28h-141q-29 0 -29 28q0 83 -49 143t-119 60t-118 -60t-50 -143v-510q0 -86 47 -142t121 -56t121 56t47 142v8q0 31 29 31h141q29 0 29 -31z" glyph-name="cent" horiz-adv-x="1028" unicode="¢"/><glyph d="M1219 184v-157q0 -27 -23 -27h-848q-25 0 -24 27v641q0 63 -62 63h-94q-31 0 -31 27v116q0 31 31 31h94q63 0 64 66l-2 246q0 186 125 315t305 129h18q174 0 288 -128t114 -316v-70q0 -31 -29 -31h-148q-31 0 -30 31v22q1 109 -55 188t-144 79t-150 -78t-61 -189v-200 q0 -63 64 -64h323q31 0 31 -26v-115q0 -33 -31 -33h-326q-61 0 -61 -63v-369q0 -37 25 -61t59 -23h555q23 0 23 -31z" glyph-name="sterling" horiz-adv-x="1355" unicode="£"/><glyph d="M1114 510v-88q0 -180 -126 -312t-302 -133h-18q-176 0 -302 131t-128 316l-2 72q-2 63 -64 63h-96q-31 0 -31 31v117q0 27 31 26h100q60 -1 62 63t-62 64h-96q-31 0 -31 33v115q0 27 31 26h94q63 0 64 64v119q0 186 124 315t306 129h18q176 0 299 -131q125 -127 125 -313 v-70q0 -31 -29 -31h-172q-31 0 -30 31v22q0 109 -56 187q-53 80 -141 80t-148 -79t-61 -186q-4 -78 0 -88q10 -49 62 -49h256q34 0 30 -20l-22 -117q-8 -37 -31 -37h-233q-66 0 -64 -63t64 -64h190q35 0 31 -20l-23 -117q-8 -37 -31 -37h-165q-63 0 -64 -63v-41 q0 -106 59 -189q62 -78 150 -78t147 80t60 187v55q0 31 24 31h172q29 0 29 -31z" glyph-name="currency" horiz-adv-x="1251" unicode="¤"/><glyph d="M1180 545v-117q0 -33 -31 -33h-324q-63 0 -63 -61v-307q0 -27 -25 -27h-178q-27 0 -27 27v307q0 61 -63 61h-324q-31 0 -30 33v117q0 27 30 26h328q59 0 63 64t-63 63h-326q-31 0 -30 31v117q0 27 30 26h209q66 0 66 54q0 6 -4 22l-283 676q-6 14 19 14h204q14 0 27 -34 l211 -574q18 -53 57 -53t54 57l174 570q10 35 26 34h205q10 0 14 -3t2 -11l-251 -678q-4 -12 -5 -20q0 -53 66 -54h209q31 0 31 -26v-117q0 -31 -31 -31h-326q-67 0 -63 -63t63 -64h328q31 1 31 -26z" glyph-name="yen" horiz-adv-x="1294" unicode="¥"/><glyph d="M350 641v-862q0 -31 -28 -31h-150q-29 0 -29 31v862q0 29 29 29h150q28 0 28 -29zM350 1860v-863q0 -29 -28 -28h-150q-29 0 -29 28v863q0 31 29 30h150q28 1 28 -30z" glyph-name="brokenbar" horiz-adv-x="493" unicode="¦"/><glyph d="M897 403q0 87 -127 213q-86 88 -188 158q-84 0 -142 -69q-55 -72 -55 -152q0 -109 107 -207l194 -147q98 2 155 59q56 58 56 145zM1122 410q0 -256 -237 -383q166 -180 166 -336q0 -190 -122 -305t-317 -115q-356 0 -475 426q-6 25 15 33l163 51q27 8 35 -19 q76 -283 262 -282q96 0 154 58q57 58 57 153q0 125 -168 254q-209 156 -313 235q-170 164 -170 373q0 154 62 243t198 134q-186 188 -186 342q0 389 403 389q268 0 402 -283l26 -73q6 -27 -14 -33l-139 -45q-23 -10 -33 18l-27 62q-82 178 -215 178q-80 -1 -135 -65 t-55 -148q0 -109 172 -254l319 -266q172 -170 172 -342z" glyph-name="section" horiz-adv-x="1259" unicode="§"/><glyph d="M354 1651v-213q0 -37 -30 -37h-150q-31 0 -31 37v213q0 33 31 32h150q30 1 30 -32zM838 1651v-213q0 -37 -31 -37h-152q-31 0 -30 37v213q0 33 30 32h152q31 1 31 -32z" glyph-name="dieresis" horiz-adv-x="985" unicode="¨"/><glyph d="M1202 801v-53q0 -102 -71 -180t-175 -76h-10q-102 0 -176 75q-72 78 -72 181v477q0 102 72 178q74 76 176 76h10q100 0 172 -75t72 -179v-43l-6 -6h-102q-6 0 -9 6v14q0 72 -35 122q-36 50 -94 50t-98 -51q-39 -51 -39 -121v-430q0 -70 39 -120t96 -50t98 51 q40 51 40 119v35q0 6 4 6h102q6 0 6 -6zM1651 985q0 301 -206 513t-495 212q-288 0 -494 -212t-206 -513t206 -513t494 -212t495 212q206 212 206 513zM952 1827q338 0 574 -247t237 -594q-1 -347 -237 -595t-574 -248t-577 246q-238 250 -238 597t238 595q239 246 577 246z " glyph-name="copyright" horiz-adv-x="1900" unicode="©"/><glyph d="M692 756v207q0 55 -51 55q-14 0 -27 -6q-137 -74 -182 -113q-88 -80 -88 -190q0 -137 127 -138q70 0 141 47q80 58 80 138zM885 387h-137q-23 1 -36 57t-53 56q-12 0 -90 -69t-151 -69q-131 0 -206 79t-75 221v47q0 160 160 284q37 33 293 178q102 59 102 107v92 q0 55 -37 95t-90 40h-88q-53 0 -91 -40t-38 -95v-33q0 -31 -29 -30h-137q-29 0 -28 30v43q0 119 82 200t200 81h168q117 0 199 -81t82 -200v-862q0 -18 20 -108q6 -23 -20 -23z" glyph-name="ordfeminine" horiz-adv-x="1042" unicode="ª"/><glyph d="M406 692q0 -29 16 -45l366 -387q18 -23 0 -43l-90 -98q-18 -23 -41 0l-522 551q-23 23 0 45l518 547q20 20 43 -2q28 -21 64 -61t36 -54q0 -15 -8 -23l-366 -385q-16 -16 -16 -45zM1483 1140q0 -10 -8 -18l-369 -385q-16 -16 -14 -47t14 -43l369 -387q18 -23 -2 -43 l-89 -98q-20 -20 -41 0l-524 551q-23 23 0 45l518 547q20 20 43 -2q4 -4 45 -40t49 -52q9 -18 9 -28z" glyph-name="guillemotleft" horiz-adv-x="1607" unicode="«"/><glyph d="M1106 862v-438q0 -27 -23 -27h-180q-29 0 -29 27v141q0 41 -23 67q-24 26 -60 25h-625q-23 0 -23 35v170q0 31 23 31h917q23 0 23 -31z" glyph-name="logicalnot" horiz-adv-x="1249" unicode="¬"/><glyph d="M991 750v-175q0 -33 -28 -32h-793q-27 0 -27 32v175q0 41 27 41h793q28 0 28 -41z" glyph-name="uni00AD" horiz-adv-x="1132" unicode="­"/><glyph d="M991 750v-175q0 -33 -28 -32h-793q-27 0 -27 32v175q0 41 27 41h793q28 0 28 -41z" glyph-name="uni00AD" horiz-adv-x="1132" unicode="−"/><glyph d="M1114 1157v80q0 55 -38 93t-89 38h-96q-57 0 -57 -63v-215q0 -25 18 -43t43 -19h92q51 0 89 37t38 92zM1133 506q-4 0 -7 14l-127 371q-14 45 -51 45h-53q-61 0 -61 -64v-360q0 -2 -5 -6h-100q-2 2 -2 6v950q0 2 2 2h252q100 0 168 -66t68 -169v-49q0 -86 -35 -131 l-84 -82q-13 -18 -4 -45l145 -416h-106zM1651 985q0 301 -206 513t-495 212q-288 0 -494 -212t-206 -513t206 -513t494 -212t495 212q206 212 206 513zM952 1827q338 0 574 -247t237 -594q-1 -347 -237 -595t-574 -248t-577 246q-238 250 -238 597t238 595q239 246 577 246z " glyph-name="registered" horiz-adv-x="1900" unicode="®"/><glyph d="M707 1577v-158q0 -23 -15 -22h-567q-16 0 -16 22v158q0 20 16 20h567q15 0 15 -20z" glyph-name="macron" horiz-adv-x="870" unicode="¯"/><glyph d="M707 1577v-158q0 -23 -15 -22h-567q-16 0 -16 22v158q0 20 16 20h567q15 0 15 -20z" glyph-name="macron" horiz-adv-x="870" unicode="ˉ"/><glyph d="M490 1028q96 0 163 76q68 76 68 179t-68 177t-164 74q-95 0 -165 -74t-70 -177t68 -181q72 -74 168 -74zM840 1282q0 -156 -102 -268t-250 -113q-148 0 -249 113q-101 114 -101 268t100 266q102 112 249 113q147 0 248 -113q105 -110 105 -266z" glyph-name="degree" horiz-adv-x="976" unicode="°"/><glyph d="M1032 166v-141q0 -25 -28 -25h-840q-27 0 -27 25v141q0 33 27 33h840q28 0 28 -33zM1040 870v-137q0 -31 -32 -31h-324v-340q0 -33 -33 -32h-129q-29 0 -28 32v340h-326q-31 0 -31 33v137q0 29 31 29h326v342q0 31 30 31h131q29 0 29 -31v-342h324q32 0 32 -31z" glyph-name="plusminus" horiz-adv-x="1175" unicode="±"/><glyph d="M707 1796l75 -141q20 -37 0 -45l-503 -226q-35 -16 -48 7l-4 4q-14 27 13 49l426 362q25 23 41 -10z" glyph-name="acute" horiz-adv-x="933" unicode="´"/><glyph d="M858 1223v-1180q0 -29 -29 -29h-145q-14 0 -39 49q-20 51 -60 51t-139 -91q-33 -33 -45 -33q-63 0 -63 -72v-256q0 -31 -29 -31h-143q-29 0 -29 31v1561q0 29 29 28h145q29 0 29 -28v-867q0 -68 38 -112t99 -43q61 0 121 47q59 49 59 112v863q0 29 29 28h143q29 1 29 -28 z" glyph-name="uni00B5" horiz-adv-x="995" unicode="µ"/><glyph d="M858 1223v-1180q0 -29 -29 -29h-145q-14 0 -39 49q-20 51 -60 51t-139 -91q-33 -33 -45 -33q-63 0 -63 -72v-256q0 -31 -29 -31h-143q-29 0 -29 31v1561q0 29 29 28h145q29 0 29 -28v-867q0 -68 38 -112t99 -43q61 0 121 47q59 49 59 112v863q0 29 29 28h143q29 1 29 -28 z" glyph-name="uni00B5" horiz-adv-x="995" unicode="μ"/><glyph d="M766 975v373q0 36 -28 60t-60 24h-113q-80 0 -137 -58t-57 -139v-145q0 -82 57 -140t137 -59h113q32 1 60 25t28 59zM1448 1614v-1587q0 -27 -23 -27h-168q-27 0 -26 27v1329q0 34 -23 60t-57 26h-70q-31 0 -57 -27t-27 -59v-1329q0 -27 -22 -27h-176q-29 0 -29 27v579 q0 37 -25 63t-59 25h-143q-170 0 -289 123q-117 125 -117 301v94q0 178 118 302t288 124h876q29 1 29 -24z" glyph-name="paragraph" horiz-adv-x="1585" unicode="¶"/><glyph d="M379 864v-235q0 -37 -31 -37h-174q-31 0 -31 37v235q0 33 31 33h174q31 0 31 -33z" glyph-name="periodcentered" horiz-adv-x="520" unicode="·"/><glyph d="M379 864v-235q0 -37 -31 -37h-174q-31 0 -31 37v235q0 33 31 33h174q31 0 31 -33z" glyph-name="periodcentered" horiz-adv-x="520" unicode="∙"/><glyph d="M844 -268q0 -96 -28 -136t-89 -48t-203 4t-170 12t-28 16v35q0 20 16 20l180 -4q139 2 169 28t30 73q0 76 -103 88q-37 4 -190 4q-18 0 -18 18v185q0 18 18 18h49q14 0 15 -18v-131q61 0 143 11t117 7q92 -16 92 -182z" glyph-name="cedilla" horiz-adv-x="1169" unicode="¸"/><glyph d="M647 686v649q0 57 -38 99t-93 43h-49q-55 0 -96 -42t-41 -100v-649q0 -57 41 -100t96 -43h49q55 0 93 43t38 100zM836 1343v-661q0 -129 -90 -224t-216 -96h-88q-129 0 -217 94t-88 226v661q0 135 89 227t216 91h88q126 1 216 -93t90 -225z" glyph-name="ordmasculine" horiz-adv-x="972" unicode="º"/><glyph d="M518 692q0 29 -16 45l-367 385q-10 10 -10 20q0 26 49 69t53 49q23 23 43 2l518 -547q23 -22 0 -45l-522 -551q-20 -20 -43 0l-88 98q-20 20 0 43l367 387q16 16 16 45zM819 1122q-8 8 -8 27t49 62t53 49q20 23 41 2l521 -547q23 -22 0 -45l-525 -551q-20 -20 -41 0 l-88 98q-20 20 -2 43l369 387q14 14 15 43t-15 47z" glyph-name="guillemotright" horiz-adv-x="1607" unicode="»"/><glyph d="M494 1202v199q0 31 30 31h174q31 0 31 -31v-199q0 -29 -31 -28h-174q-30 -1 -30 28zM137 166v53q0 162 84 303t223 244q63 45 64 104v84q0 27 24 27h156q27 0 27 -27v-155q0 -47 -39 -80q-172 -145 -217 -207q-100 -125 -101 -279v-45q0 -104 50 -166t126 -62 q77 0 128 67q51 68 51 161v31q0 29 26 29h168q31 0 31 -29v-53q0 -162 -110 -276t-265 -113h-55q-154 1 -262 115t-109 274z" glyph-name="questiondown" unicode="¿"/><glyph d="M831 1831l-4 -4q-12 -23 -47 -6l-504 225q-20 8 0 45l76 141q16 33 41 11l428 -363q24 -22 10 -49zM540 1309q-40 0 -48 -70l-89 -557q-6 -37 16 -66t58 -28h133q37 0 61 28q23 29 17 68l-96 555q-12 70 -52 70zM1024 0h-184q-18 0 -27 39l-49 250q-16 78 -82 78h-250 q-76 0 -88 -78l-43 -252q-10 -37 -33 -37h-180q-23 0 -20 27l303 1577q6 35 28 34h293q21 1 29 -36l323 -1575q6 -27 -20 -27z" glyph-name="Agrave" horiz-adv-x="1171" unicode="À"/><glyph d="M774 2251l76 -142q20 -37 0 -45l-504 -225q-35 -16 -47 6l-4 4q-16 27 12 49l426 363q25 23 41 -10zM540 1309q-40 0 -48 -70l-89 -557q-6 -37 16 -66t58 -28h133q37 0 61 28q23 29 17 68l-96 555q-12 70 -52 70zM1024 0h-184q-18 0 -27 39l-49 250q-16 78 -82 78h-250 q-76 0 -88 -78l-43 -252q-10 -37 -33 -37h-180q-23 0 -20 27l303 1577q6 35 28 34h293q21 1 29 -36l323 -1575q6 -27 -20 -27z" glyph-name="Aacute" horiz-adv-x="1171" unicode="Á"/><glyph d="M791 1815q-35 0 -56 32l-112 160q-23 29 -45 29t-46 -29l-112 -156q-25 -37 -58 -36h-118q-53 0 -54 20q0 10 13 29l235 331q14 20 31 21h215q15 0 27 -14l241 -334q12 -14 13 -29q0 -25 -60 -24h-114zM540 1309q-40 0 -48 -70l-89 -557q-6 -37 16 -66t58 -28h133 q37 0 61 28q23 29 17 68l-96 555q-12 70 -52 70zM1024 0h-184q-18 0 -27 39l-49 250q-16 78 -82 78h-250q-76 0 -88 -78l-43 -252q-10 -37 -33 -37h-180q-23 0 -20 27l303 1577q6 35 28 34h293q21 1 29 -36l323 -1575q6 -27 -20 -27z" glyph-name="Acircumflex" horiz-adv-x="1171" unicode="Â"/><glyph d="M961 2157q0 -127 -54 -211q-57 -94 -155 -95q-54 1 -156 51t-148 50t-89 -45q-42 -45 -42 -77t-14 -32h-78q-14 0 -14 21q0 100 74 197t174 98q63 0 145 -54t132 -55q50 0 91 43t41 109q0 18 19 18h59q15 0 15 -18zM540 1309q-40 0 -48 -70l-89 -557q-6 -37 16 -66 t58 -28h133q37 0 61 28q23 29 17 68l-96 555q-12 70 -52 70zM1024 0h-184q-18 0 -27 39l-49 250q-16 78 -82 78h-250q-76 0 -88 -78l-43 -252q-10 -37 -33 -37h-180q-23 0 -20 27l303 1577q6 35 28 34h293q21 1 29 -36l323 -1575q6 -27 -20 -27z" glyph-name="Atilde" horiz-adv-x="1171" unicode="Ã"/><glyph d="M432 2111v-213q0 -37 -31 -36h-149q-31 0 -31 36v213q0 33 31 33h149q31 0 31 -33zM915 2111v-213q0 -37 -30 -36h-152q-31 0 -31 36v213q0 33 31 33h152q30 0 30 -33zM540 1309q-40 0 -48 -70l-89 -557q-6 -37 16 -66t58 -28h133q37 0 61 28q23 29 17 68l-96 555 q-12 70 -52 70zM1024 0h-184q-18 0 -27 39l-49 250q-16 78 -82 78h-250q-76 0 -88 -78l-43 -252q-10 -37 -33 -37h-180q-23 0 -20 27l303 1577q6 35 28 34h293q21 1 29 -36l323 -1575q6 -27 -20 -27z" glyph-name="Adieresis" horiz-adv-x="1171" unicode="Ä"/><glyph d="M731 2005v57q0 54 -35 94t-84 39h-59q-49 -1 -83 -39t-34 -94v-57q0 -55 34 -94t83 -39h59q49 0 84 39t35 94zM809 2083v-107q0 -80 -52 -138t-124 -58h-103q-72 0 -122 58t-50 138v107q0 82 50 138t122 56h103q72 0 124 -57t52 -137zM540 1309q-40 0 -48 -70l-89 -557 q-6 -37 16 -66t58 -28h133q37 0 61 28q23 29 17 68l-96 555q-12 70 -52 70zM1024 0h-184q-18 0 -27 39l-49 250q-16 78 -82 78h-250q-76 0 -88 -78l-43 -252q-10 -37 -33 -37h-180q-23 0 -20 27l303 1577q6 35 28 34h293q21 1 29 -36l323 -1575q6 -27 -20 -27z" glyph-name="Aring" horiz-adv-x="1171" unicode="Å"/><glyph d="M574 1278q-42 0 -50 -70l-75 -526q-5 -37 17 -66t56 -28h115q37 0 61 28t17 68l-88 524q-11 70 -53 70zM1434 188v-155q0 -33 -31 -33h-535q-20 0 -28 39l-54 250q-18 78 -81 78h-256q-74 0 -87 -80l-38 -250q-6 -37 -33 -37h-180q-25 0 -19 27l301 1577q6 35 29 34h960 q31 0 31 -30v-148q0 -33 -31 -33h-499q-41 1 -69 -27t-19 -69l61 -289q18 -80 88 -79h344q31 0 31 -29v-146q0 -31 -31 -30h-262q-36 0 -66 -28t-22 -66l74 -361q16 -84 88 -84h303q31 0 31 -31z" glyph-name="AE" horiz-adv-x="1570" unicode="Æ"/><glyph d="M1020 520v-88q0 -180 -127 -311t-301 -131h-53v-123q45 0 133 8t125 2q92 -16 92 -160q0 -88 -28 -125q-27 -37 -95 -44t-203 3q-135 11 -163 11t-29 14v35q0 16 18 16l180 -2q143 5 170 27t27 65q0 68 -102 80q-37 4 -191 4q-16 0 -16 17v166q-145 68 -230 186 q-84 119 -84 262v789q0 184 126 312t304 128h19q176 0 300 -128t124 -312v-70q0 -31 -29 -31h-172q-31 0 -31 31v23q0 108 -54 186t-142 78t-148 -79t-61 -185v-711q0 -104 59 -187q62 -78 150 -78t147 78q59 82 60 187v57q0 29 24 29h172q29 0 29 -29z" glyph-name="Ccedilla" horiz-adv-x="1163" unicode="Ç"/><glyph d="M784 1831l-4 -4q-12 -23 -47 -6l-504 225q-20 8 0 45l76 141q16 33 41 11l428 -363q24 -22 10 -49zM891 188v-155q0 -33 -31 -33h-692q-31 0 -31 33v1575q0 31 31 30h672q31 0 30 -30v-148q0 -33 -30 -33h-387q-37 1 -63 -25t-25 -63v-288q-1 -37 27 -63t61 -25h292 q31 0 31 -29v-146q0 -31 -31 -30h-292q-35 0 -62 -26t-26 -62v-361q-1 -37 25 -63t63 -27h407q31 0 31 -31z" glyph-name="Egrave" horiz-adv-x="1040" unicode="È"/><glyph d="M707 2251l75 -142q20 -37 0 -45l-503 -225q-35 -16 -48 6l-4 4q-14 27 13 49l426 363q25 23 41 -10zM891 188v-155q0 -33 -31 -33h-692q-31 0 -31 33v1575q0 31 31 30h672q31 0 30 -30v-148q0 -33 -30 -33h-387q-37 1 -63 -25t-25 -63v-288q-1 -37 27 -63t61 -25h292 q31 0 31 -29v-146q0 -31 -31 -30h-292q-35 0 -62 -26t-26 -62v-361q-1 -37 25 -63t63 -27h407q31 0 31 -31z" glyph-name="Eacute" horiz-adv-x="1040" unicode="É"/><glyph d="M897 1839q0 -25 -59 -24h-115q-35 0 -55 32l-113 160q-23 29 -45 29t-45 -29l-113 -156q-25 -37 -57 -36h-119q-53 0 -53 20q0 10 12 29l236 331q14 20 30 21h215q15 0 27 -14l242 -334q12 -14 12 -29zM891 188v-155q0 -33 -31 -33h-692q-31 0 -31 33v1575q0 31 31 30 h672q31 0 30 -30v-148q0 -33 -30 -33h-387q-37 1 -63 -25t-25 -63v-288q-1 -37 27 -63t61 -25h292q31 0 31 -29v-146q0 -31 -31 -30h-292q-35 0 -62 -26t-26 -62v-361q-1 -37 25 -63t63 -27h407q31 0 31 -31z" glyph-name="Ecircumflex" horiz-adv-x="1040" unicode="Ê"/><glyph d="M369 2111v-213q0 -37 -31 -36h-150q-31 0 -30 36v213q0 33 30 33h150q31 0 31 -33zM852 2111v-213q0 -37 -31 -36h-151q-31 0 -31 36v213q0 33 31 33h151q31 0 31 -33zM891 188v-155q0 -33 -31 -33h-692q-31 0 -31 33v1575q0 31 31 30h672q31 0 30 -30v-148 q0 -33 -30 -33h-387q-37 1 -63 -25t-25 -63v-288q-1 -37 27 -63t61 -25h292q31 0 31 -29v-146q0 -31 -31 -30h-292q-35 0 -62 -26t-26 -62v-361q-1 -37 25 -63t63 -27h407q31 0 31 -31z" glyph-name="Edieresis" horiz-adv-x="1040" unicode="Ë"/><glyph d="M557 1831l-4 -4q-12 -23 -47 -6l-504 225q-20 8 0 45l76 141q16 33 41 11l428 -363q24 -22 10 -49zM393 1608v-1575q0 -33 -28 -33h-177q-29 0 -28 33v1575q0 31 28 30h177q28 1 28 -30z" glyph-name="Igrave" horiz-adv-x="518" unicode="Ì"/><glyph d="M489 2251l76 -142q20 -37 0 -45l-504 -225q-35 -16 -47 6l-4 4q-14 27 13 49l426 363q24 23 40 -10zM393 1608v-1575q0 -33 -28 -33h-177q-29 0 -28 33v1575q0 31 28 30h177q28 1 28 -30z" glyph-name="Iacute" horiz-adv-x="518" unicode="Í"/><glyph d="M494 1815q-35 0 -56 32l-112 160q-24 29 -46 29t-44 -29l-113 -156q-25 -37 -57 -36h-119q-53 0 -53 20q0 10 12 29l235 331q14 20 31 21h215q15 0 27 -14l241 -334q12 -14 13 -29q0 -25 -60 -24h-114zM393 1608v-1575q0 -33 -28 -33h-177q-29 0 -28 33v1575q0 31 28 30 h177q28 1 28 -30z" glyph-name="Icircumflex" horiz-adv-x="518" unicode="Î"/><glyph d="M119 2111v-213q0 -37 -31 -36h-149q-31 0 -31 36v213q0 33 31 33h149q31 0 31 -33zM602 2111v-213q0 -37 -31 -36h-151q-31 0 -31 36v213q0 33 31 33h151q31 0 31 -33zM393 1608v-1575q0 -33 -28 -33h-177q-29 0 -28 33v1575q0 31 28 30h177q28 1 28 -30z" glyph-name="Idieresis" horiz-adv-x="518" unicode="Ï"/><glyph d="M920 467v698q0 111 -78 189t-183 78h-61q-34 0 -58 -26t-24 -63v-419h199q18 0 18 -19v-121q0 -18 -18 -18h-199v-473q0 -37 24 -65t58 -27h61q104 0 183 78q78 82 78 188zM1149 1194v-750q0 -182 -126 -313t-304 -131h-408q-25 0 -24 33v733h-129q-14 0 -15 18v121 q0 18 15 19h129v684q0 31 24 30h408q178 0 304 -131t126 -313z" glyph-name="Eth" horiz-adv-x="1290" unicode="Ð"/><glyph d="M983 2157q0 -127 -55 -216t-154 -90q-58 1 -158 51t-146 50t-88 -45t-42 -77t-14 -32h-78q-14 0 -15 21q0 100 74 197t174 98q63 0 145 -54t133 -55q50 0 91 43t41 109q0 18 18 18h60q14 0 14 -18zM1053 1608v-1581q0 -27 -27 -27h-160q-16 0 -32 35l-392 901 q-16 35 -41 35q-45 0 -45 -51v-893q0 -27 -28 -27h-166q-25 0 -25 27v1585q0 27 25 26h166q27 0 45 -43l377 -870q18 -45 52 -45t34 63v865q0 31 30 30h160q27 1 27 -30z" glyph-name="Ntilde" horiz-adv-x="1202" unicode="Ñ"/><glyph d="M831 1831l-4 -4q-12 -23 -47 -6l-504 225q-20 8 0 45l76 141q16 33 41 11l428 -363q24 -22 10 -49zM786 449v735q0 102 -59 180t-144 78t-145 -78t-61 -180v-735q0 -100 59 -179q60 -74 146 -74t145 74q59 79 59 179zM1022 1239v-836q0 -174 -120 -300t-292 -126h-63 q-172 0 -291 125t-119 301v836q0 178 120 300t290 122h63q172 0 292 -124t120 -298z" glyph-name="Ograve" horiz-adv-x="1169" unicode="Ò"/><glyph d="M774 2251l76 -142q20 -37 0 -45l-504 -225q-35 -16 -47 6l-4 4q-16 27 12 49l426 363q25 23 41 -10zM786 449v735q0 102 -59 180t-144 78t-145 -78t-61 -180v-735q0 -100 59 -179q60 -74 146 -74t145 74q59 79 59 179zM1022 1239v-836q0 -174 -120 -300t-292 -126h-63 q-172 0 -291 125t-119 301v836q0 178 120 300t290 122h63q172 0 292 -124t120 -298z" glyph-name="Oacute" horiz-adv-x="1169" unicode="Ó"/><glyph d="M791 1815q-35 0 -56 32l-112 160q-23 29 -45 29t-46 -29l-112 -156q-25 -37 -58 -36h-118q-53 0 -54 20q0 10 13 29l235 331q14 20 31 21h215q15 0 27 -14l241 -334q12 -14 13 -29q0 -25 -60 -24h-114zM786 449v735q0 102 -59 180t-144 78t-145 -78t-61 -180v-735 q0 -100 59 -179q60 -74 146 -74t145 74q59 79 59 179zM1022 1239v-836q0 -174 -120 -300t-292 -126h-63q-172 0 -291 125t-119 301v836q0 178 120 300t290 122h63q172 0 292 -124t120 -298z" glyph-name="Ocircumflex" horiz-adv-x="1169" unicode="Ô"/><glyph d="M961 2157q0 -127 -54 -211q-57 -94 -155 -95q-54 1 -156 51t-148 50t-89 -45q-42 -45 -42 -77t-14 -32h-78q-14 0 -14 21q0 100 74 197t174 98q63 0 145 -54t132 -55q50 0 91 43t41 109q0 18 19 18h59q15 0 15 -18zM786 449v735q0 102 -59 180t-144 78t-145 -78t-61 -180 v-735q0 -100 59 -179q60 -74 146 -74t145 74q59 79 59 179zM1022 1239v-836q0 -174 -120 -300t-292 -126h-63q-172 0 -291 125t-119 301v836q0 178 120 300t290 122h63q172 0 292 -124t120 -298z" glyph-name="Otilde" horiz-adv-x="1169" unicode="Õ"/><glyph d="M455 2111v-213q0 -37 -31 -36h-150q-31 0 -30 36v213q0 33 30 33h150q31 0 31 -33zM938 2111v-213q0 -37 -31 -36h-151q-31 0 -31 36v213q0 33 31 33h151q31 0 31 -33zM786 449v735q0 102 -59 180t-144 78t-145 -78t-61 -180v-735q0 -100 59 -179q60 -74 146 -74t145 74 q59 79 59 179zM1022 1239v-836q0 -174 -120 -300t-292 -126h-63q-172 0 -291 125t-119 301v836q0 178 120 300t290 122h63q172 0 292 -124t120 -298z" glyph-name="Odieresis" horiz-adv-x="1169" unicode="Ö"/><glyph d="M879 412q8 -8 8 -22q-1 -14 -11 -27t-16 -21t-26 -28l-44 -44q-24 -24 -47 -4l-235 256l-238 -256q-8 -8 -24 -8t-33 20q-19 20 -31 31q-12 12 -19 22t-28 36q-23 23 0 45l238 256l-238 254q-8 8 -8 26t35 54q36 34 62 62t46 3l238 -256l235 256q9 8 25 8t53 -39l58 -67 q23 -23 0 -47l-238 -254z" glyph-name="multiply" horiz-adv-x="1013" unicode="×"/><glyph d="M811 449v573l-387 -688q68 -137 184 -137q84 0 144 73q59 79 59 179zM608 1442q-86 0 -146 -78t-61 -180v-547l383 676q-70 129 -176 129zM995 1661h127q31 0 31 -24t-43 -93l-92 -153q29 -82 29 -152v-836q0 -174 -120 -300t-292 -126h-64q-143 0 -282 115l-49 -88 q-14 -27 -31 -27h-131q-33 0 -33 24t45 95l96 160q-25 76 -24 147v836q0 178 119 300t290 122h64q145 0 283 -113l47 84q16 29 30 29z" glyph-name="Oslash" horiz-adv-x="1198" unicode="Ø"/><glyph d="M831 1831l-4 -4q-12 -23 -47 -6l-504 225q-20 8 0 45l76 141q16 33 41 11l428 -363q24 -22 10 -49zM1026 1614v-1211q0 -176 -124 -301t-296 -125h-49q-172 0 -297 125q-123 127 -123 301v1211q0 25 25 24h176q23 0 22 -24v-1176q0 -104 66 -182t152 -78t152 78t65 182 v1176q0 25 26 24h176q29 1 29 -24z" glyph-name="Ugrave" horiz-adv-x="1173" unicode="Ù"/><glyph d="M774 2251l76 -142q20 -37 0 -45l-504 -225q-35 -16 -47 6l-4 4q-16 27 12 49l426 363q25 23 41 -10zM1026 1614v-1211q0 -176 -124 -301t-296 -125h-49q-172 0 -297 125q-123 127 -123 301v1211q0 25 25 24h176q23 0 22 -24v-1176q0 -104 66 -182t152 -78t152 78t65 182 v1176q0 25 26 24h176q29 1 29 -24z" glyph-name="Uacute" horiz-adv-x="1173" unicode="Ú"/><glyph d="M791 1815q-35 0 -56 32l-112 160q-23 29 -45 29t-46 -29l-112 -156q-25 -37 -58 -36h-118q-53 0 -54 20q0 10 13 29l235 331q14 20 31 21h215q15 0 27 -14l241 -334q12 -14 13 -29q0 -25 -60 -24h-114zM1026 1614v-1211q0 -176 -124 -301t-296 -125h-49q-172 0 -297 125 q-123 127 -123 301v1211q0 25 25 24h176q23 0 22 -24v-1176q0 -104 66 -182t152 -78t152 78t65 182v1176q0 25 26 24h176q29 1 29 -24z" glyph-name="Ucircumflex" horiz-adv-x="1173" unicode="Û"/><glyph d="M455 2111v-213q0 -37 -31 -36h-150q-31 0 -30 36v213q0 33 30 33h150q31 0 31 -33zM938 2111v-213q0 -37 -31 -36h-151q-31 0 -31 36v213q0 33 31 33h151q31 0 31 -33zM1026 1614v-1211q0 -176 -124 -301t-296 -125h-49q-172 0 -297 125q-123 127 -123 301v1211 q0 25 25 24h176q23 0 22 -24v-1176q0 -104 66 -182t152 -78t152 78t65 182v1176q0 25 26 24h176q29 1 29 -24z" glyph-name="Udieresis" horiz-adv-x="1173" unicode="Ü"/><glyph d="M799 2251l75 -142q20 -37 0 -45l-503 -225q-35 -16 -47 6l-5 4q-16 27 13 49l426 363q25 23 41 -10zM674 618v-591q0 -27 -27 -27h-178q-27 0 -27 27v591q0 33 -14 64l-383 942q-2 8 3 11t18 3h198q14 0 29 -36l213 -572q22 -53 58 -53t54 55l179 572q10 35 26 34h199 q10 0 14 -3t2 -11l-350 -942q-14 -35 -14 -64z" glyph-name="Yacute" horiz-adv-x="1280" unicode="Ý"/><glyph d="M770 758v145q0 82 -57 139t-138 58h-112q-33 0 -61 -25t-27 -59v-373q-1 -35 27 -59t61 -25h112q80 0 138 58q57 59 57 141zM1004 883v-97q0 -176 -118 -300t-288 -124h-143q-35 0 -60 -26t-24 -60v-272q0 -27 -29 -27h-176q-23 0 -23 27v1630q0 27 23 27h176 q29 0 29 -27v-241q1 -35 25 -61t59 -25h143q170 0 287 -125q119 -121 119 -299z" glyph-name="Thorn" horiz-adv-x="1146" unicode="Þ"/><glyph d="M1024 549v-182q0 -162 -108 -276t-267 -114h-94q-25 0 -25 31v154q0 27 25 26h90q78 0 123 69t45 153v159q0 83 -51 143t-121 60h-80q-25 0 -24 31v153q0 27 24 27h80q70 1 114 63t44 144v115q0 67 -45 113t-109 46h-137q-62 0 -108 -47t-46 -112v-1313q0 -14 -26 -15 h-160q-31 0 -31 25v1317q0 129 103 235q104 106 231 107h188q125 0 227 -102t103 -230v-139q0 -168 -94 -264q-21 -20 -21 -43t31 -41q119 -68 119 -293z" glyph-name="germandbls" horiz-adv-x="1161" unicode="ß"/><glyph d="M784 1395l-4 -4q-12 -23 -47 -7l-504 226q-20 8 0 45l76 141q16 33 41 10l428 -362q24 -22 10 -49zM647 371v204q0 57 -53 58q-12 0 -25 -6q-139 -74 -182 -115q-88 -80 -88 -190q0 -137 127 -138q70 0 146 52t75 135zM840 2h-138q-23 0 -45 82q-16 29 -43 29 q-12 0 -90 -68t-153 -68q-129 0 -204 79t-75 218v48q0 158 158 284q43 33 295 178q102 59 102 107v94q0 53 -38 94t-89 41h-90q-51 0 -90 -41t-39 -94v-35q0 -29 -29 -28h-137q-29 0 -29 28v43q0 119 82 200t201 81h170q117 0 198 -80t81 -201v-862q-1 -10 22 -106 q4 -23 -20 -23z" glyph-name="agrave" unicode="à"/><glyph d="M707 1796l75 -141q20 -37 0 -45l-503 -226q-35 -16 -48 7l-4 4q-14 27 13 49l426 362q25 23 41 -10zM647 371v204q0 57 -53 58q-12 0 -25 -6q-139 -74 -182 -115q-88 -80 -88 -190q0 -137 127 -138q70 0 146 52t75 135zM840 2h-138q-23 0 -45 82q-16 29 -43 29 q-12 0 -90 -68t-153 -68q-129 0 -204 79t-75 218v48q0 158 158 284q43 33 295 178q102 59 102 107v94q0 53 -38 94t-89 41h-90q-51 0 -90 -41t-39 -94v-35q0 -29 -29 -28h-137q-29 0 -29 28v43q0 119 82 200t201 81h170q117 0 198 -80t81 -201v-862q-1 -10 22 -106 q4 -23 -20 -23z" glyph-name="aacute" unicode="á"/><glyph d="M907 1360q0 -25 -59 -25h-115q-35 0 -55 33l-113 160q-45 57 -90 0l-113 -156q-25 -37 -57 -37h-119q-53 0 -53 21q0 10 12 28l236 332q14 20 31 21h215q14 -1 26 -15l242 -333q12 -16 12 -29zM647 371v204q0 57 -53 58q-12 0 -25 -6q-139 -74 -182 -115 q-88 -80 -88 -190q0 -137 127 -138q70 0 146 52t75 135zM840 2h-138q-23 0 -45 82q-16 29 -43 29q-12 0 -90 -68t-153 -68q-129 0 -204 79t-75 218v48q0 158 158 284q43 33 295 178q102 59 102 107v94q0 53 -38 94t-89 41h-90q-51 0 -90 -41t-39 -94v-35q0 -29 -29 -28h-137 q-29 0 -29 28v43q0 119 82 200t201 81h170q117 0 198 -80t81 -201v-862q-1 -10 22 -106q4 -23 -20 -23z" glyph-name="acircumflex" unicode="â"/><glyph d="M858 1722q0 -127 -55 -216t-154 -89q-55 0 -156 50q-101 51 -147 51t-89 -45q-42 -45 -42 -77t-14 -32h-78q-14 0 -14 20q-1 100 73 198t174 97q64 0 146 -54t132 -54t91 43t41 108q0 18 18 19h60q14 -1 14 -19zM647 371v204q0 57 -53 58q-12 0 -25 -6 q-139 -74 -182 -115q-88 -80 -88 -190q0 -137 127 -138q70 0 146 52t75 135zM840 2h-138q-23 0 -45 82q-16 29 -43 29q-12 0 -90 -68t-153 -68q-129 0 -204 79t-75 218v48q0 158 158 284q43 33 295 178q102 59 102 107v94q0 53 -38 94t-89 41h-90q-51 0 -90 -41t-39 -94v-35 q0 -29 -29 -28h-137q-29 0 -29 28v43q0 119 82 200t201 81h170q117 0 198 -80t81 -201v-862q-1 -10 22 -106q4 -23 -20 -23z" glyph-name="atilde" unicode="ã"/><glyph d="M354 1651v-213q0 -37 -30 -37h-150q-31 0 -31 37v213q0 33 31 32h150q30 1 30 -32zM838 1651v-213q0 -37 -31 -37h-152q-31 0 -30 37v213q0 33 30 32h152q31 1 31 -32zM647 371v204q0 57 -53 58q-12 0 -25 -6q-139 -74 -182 -115q-88 -80 -88 -190q0 -137 127 -138 q70 0 146 52t75 135zM840 2h-138q-23 0 -45 82q-16 29 -43 29q-12 0 -90 -68t-153 -68q-129 0 -204 79t-75 218v48q0 158 158 284q43 33 295 178q102 59 102 107v94q0 53 -38 94t-89 41h-90q-51 0 -90 -41t-39 -94v-35q0 -29 -29 -28h-137q-29 0 -29 28v43q0 119 82 200 t201 81h170q117 0 198 -80t81 -201v-862q-1 -10 22 -106q4 -23 -20 -23z" glyph-name="adieresis" unicode="ä"/><glyph d="M655 1589v58q0 55 -34 94q-35 39 -84 39h-60q-49 0 -83 -39t-34 -94v-58q0 -55 34 -94t83 -39h60q49 0 84 39q34 39 34 94zM733 1667v-106q0 -81 -52 -139t-124 -58h-102q-72 0 -122 58t-50 139v106q0 82 50 138t122 57h102q72 0 124 -58t52 -137zM647 371v204 q0 57 -53 58q-12 0 -25 -6q-139 -74 -182 -115q-88 -80 -88 -190q0 -137 127 -138q70 0 146 52t75 135zM840 2h-138q-23 0 -45 82q-16 29 -43 29q-12 0 -90 -68t-153 -68q-129 0 -204 79t-75 218v48q0 158 158 284q43 33 295 178q102 59 102 107v94q0 53 -38 94t-89 41h-90 q-51 0 -90 -41t-39 -94v-35q0 -29 -29 -28h-137q-29 0 -29 28v43q0 119 82 200t201 81h170q117 0 198 -80t81 -201v-862q-1 -10 22 -106q4 -23 -20 -23z" glyph-name="aring" unicode="å"/><glyph d="M692 371v204q0 57 -51 58q-14 0 -27 -6q-139 -74 -182 -115q-88 -80 -88 -190q0 -137 127 -138q69 0 145 52t76 135zM1237 799v155q0 56 -37 94t-90 37h-98q-51 -1 -89 -33t-38 -79v-189q0 -45 53 -45h244q55 1 55 60zM1427 330q0 -156 -93 -254t-242 -99h-64 q-172 0 -262 129q-20 27 -53 27t-56 -22q-137 -133 -239 -134q-131 0 -206 79t-75 218v48q0 160 160 284q37 33 293 178q102 59 102 107v94q0 55 -37 95t-90 40h-88q-53 0 -91 -40t-38 -95v-35q0 -29 -29 -28h-137q-29 0 -28 28v43q0 119 82 200t200 81h168q96 0 193 -72 q90 72 188 72h148q125 0 206 -113q82 -109 82 -266v-281q0 -31 -28 -30h-455q-53 0 -53 -45v-250q0 -49 38 -84t89 -35h84q55 0 93 41t38 96v23q0 31 28 30h144q28 1 28 -30z" glyph-name="ae" horiz-adv-x="1562" unicode="æ"/><glyph d="M897 395v-47q0 -150 -101 -252t-243 -102h-61v-125q66 0 144 8t114 2q94 -14 94 -162q0 -88 -28 -125t-96 -44t-204 3q-134 11 -162 11t-28 16v33q0 16 16 16q276 0 317 13q61 16 62 77q0 61 -103 78q-41 8 -190 8q-18 0 -18 17v182q-123 37 -195 131t-72 215v582 q-1 144 99 244t245 100h66q143 0 243 -99t101 -245v-35q0 -29 -29 -29h-141q-29 0 -29 29q0 82 -49 142q-49 61 -119 61t-118 -60t-50 -143v-510q0 -84 48 -140q48 -57 120 -57q74 0 121 58t47 139v10q0 31 29 31h141q29 0 29 -31z" glyph-name="ccedilla" horiz-adv-x="1040" unicode="ç"/><glyph d="M784 1395l-4 -4q-12 -23 -47 -7l-504 226q-20 8 0 45l76 141q16 33 41 10l428 -362q24 -22 10 -49zM680 799v155q0 56 -36 94t-89 37h-98q-55 1 -92 -37t-37 -94v-155q0 -59 55 -60h242q55 1 55 60zM870 330q0 -158 -93 -255t-240 -98h-66q-152 -1 -243 97t-91 254v596 q0 152 80 251t211 99h150q125 0 206 -113q82 -109 82 -266v-281q0 -31 -28 -30h-455q-55 0 -55 -58v-219q0 -55 37 -96t92 -41h84q53 0 92 41t39 96v23q0 31 28 30h142q28 1 28 -30z" glyph-name="egrave" horiz-adv-x="1019" unicode="è"/><glyph d="M707 1796l75 -141q20 -37 0 -45l-503 -226q-35 -16 -48 7l-4 4q-14 27 13 49l426 362q25 23 41 -10zM680 799v155q0 56 -36 94t-89 37h-98q-55 1 -92 -37t-37 -94v-155q0 -59 55 -60h242q55 1 55 60zM870 330q0 -158 -93 -255t-240 -98h-66q-152 -1 -243 97t-91 254v596 q0 152 80 251t211 99h150q125 0 206 -113q82 -109 82 -266v-281q0 -31 -28 -30h-455q-55 0 -55 -58v-219q0 -55 37 -96t92 -41h84q53 0 92 41t39 96v23q0 31 28 30h142q28 1 28 -30z" glyph-name="eacute" horiz-adv-x="1019" unicode="é"/><glyph d="M825 1335h-114q-35 0 -56 33l-112 160q-45 57 -90 0l-113 -156q-25 -37 -57 -37h-119q-53 0 -53 21q0 10 12 28l235 332q14 20 31 21h215q15 -1 27 -15l241 -333q12 -16 13 -29q0 -25 -60 -25zM680 799v155q0 56 -36 94t-89 37h-98q-55 1 -92 -37t-37 -94v-155 q0 -59 55 -60h242q55 1 55 60zM870 330q0 -158 -93 -255t-240 -98h-66q-152 -1 -243 97t-91 254v596q0 152 80 251t211 99h150q125 0 206 -113q82 -109 82 -266v-281q0 -31 -28 -30h-455q-55 0 -55 -58v-219q0 -55 37 -96t92 -41h84q53 0 92 41t39 96v23q0 31 28 30h142 q28 1 28 -30z" glyph-name="ecircumflex" horiz-adv-x="1019" unicode="ê"/><glyph d="M354 1651v-213q0 -37 -30 -37h-150q-31 0 -31 37v213q0 33 31 32h150q30 1 30 -32zM838 1651v-213q0 -37 -31 -37h-152q-31 0 -30 37v213q0 33 30 32h152q31 1 31 -32zM680 799v155q0 56 -36 94t-89 37h-98q-55 1 -92 -37t-37 -94v-155q0 -59 55 -60h242q55 1 55 60z M870 330q0 -158 -93 -255t-240 -98h-66q-152 -1 -243 97t-91 254v596q0 152 80 251t211 99h150q125 0 206 -113q82 -109 82 -266v-281q0 -31 -28 -30h-455q-55 0 -55 -58v-219q0 -55 37 -96t92 -41h84q53 0 92 41t39 96v23q0 31 28 30h142q28 1 28 -30z" glyph-name="edieresis" horiz-adv-x="1019" unicode="ë"/><glyph d="M532 1395l-4 -4q-12 -23 -47 -7l-504 226q-20 8 0 45l76 141q16 33 41 10l428 -362q24 -22 10 -49zM365 1223v-1192q0 -31 -27 -31h-143q-29 0 -29 31v1192q0 29 29 28h143q27 1 27 -28z" glyph-name="igrave" horiz-adv-x="483" unicode="ì"/><glyph d="M469 1796l76 -141q20 -37 0 -45l-504 -226q-35 -16 -47 7l-4 4q-14 27 12 49l426 362q25 23 41 -10zM365 1223v-1192q0 -31 -27 -31h-143q-29 0 -29 31v1192q0 29 29 28h143q27 1 27 -28z" glyph-name="iacute" horiz-adv-x="483" unicode="í"/><glyph d="M655 1360q0 -25 -59 -25h-115q-35 0 -55 33l-113 160q-45 57 -90 0l-112 -156q-25 -37 -58 -37h-119q-53 0 -53 21q0 10 13 28l235 332q14 20 31 21h215q14 -1 26 -15l242 -333q12 -16 12 -29zM365 1223v-1192q0 -31 -27 -31h-143q-29 0 -29 31v1192q0 29 29 28h143 q27 1 27 -28z" glyph-name="icircumflex" horiz-adv-x="483" unicode="î"/><glyph d="M133 1651v-213q0 -37 -31 -37h-149q-31 0 -31 37v213q0 33 31 32h149q31 1 31 -32zM616 1651v-213q0 -37 -30 -37h-152q-31 0 -31 37v213q0 33 31 32h152q30 1 30 -32zM365 1223v-1192q0 -31 -27 -31h-143q-29 0 -29 31v1192q0 29 29 28h143q27 1 27 -28z" glyph-name="idieresis" horiz-adv-x="483" unicode="ï"/><glyph d="M858 1722q0 -127 -55 -216t-154 -89q-55 0 -156 50q-101 51 -147 51t-89 -45q-42 -45 -42 -77t-14 -32h-78q-14 0 -14 20q-1 100 73 198t174 97q64 0 146 -54t132 -54t91 43t41 108q0 18 18 19h60q14 -1 14 -19zM864 1057v-1026q0 -31 -28 -31h-146q-29 0 -28 31v921 q0 139 -115 140q-80 0 -144 -56q-63 -56 -63 -106v-899q0 -31 -29 -31h-145q-29 0 -29 31v1190q0 31 29 30h145q29 0 29 -30v-29q0 -51 27 -51q14 0 120 65q105 68 185 68t136 -60t56 -157z" glyph-name="ntilde" horiz-adv-x="1011" unicode="ñ"/><glyph d="M762 1395l-4 -4q-12 -23 -47 -7l-504 226q-20 8 0 45l76 141q16 33 41 10l428 -362q24 -22 10 -49zM647 301v647q0 60 -38 102t-93 42h-49q-55 0 -96 -42t-41 -102v-647q0 -57 41 -101t96 -44h49q55 0 93 44t38 101zM836 958v-661q0 -131 -90 -225t-216 -95h-88 q-127 0 -217 93q-88 94 -88 227v661q0 132 89 224t216 92h88q126 0 216 -94t90 -222z" glyph-name="ograve" horiz-adv-x="985" unicode="ò"/><glyph d="M707 1796l75 -141q20 -37 0 -45l-503 -226q-35 -16 -48 7l-4 4q-14 27 13 49l426 362q25 23 41 -10zM647 301v647q0 60 -38 102t-93 42h-49q-55 0 -96 -42t-41 -102v-647q0 -57 41 -101t96 -44h49q55 0 93 44t38 101zM836 958v-661q0 -131 -90 -225t-216 -95h-88 q-127 0 -217 93q-88 94 -88 227v661q0 132 89 224t216 92h88q126 0 216 -94t90 -222z" glyph-name="oacute" horiz-adv-x="985" unicode="ó"/><glyph d="M825 1335h-114q-35 0 -56 33l-112 160q-45 57 -90 0l-113 -156q-25 -37 -57 -37h-119q-53 0 -53 21q0 10 12 28l235 332q14 20 31 21h215q15 -1 27 -15l241 -333q12 -16 13 -29q0 -25 -60 -25zM647 301v647q0 60 -38 102t-93 42h-49q-55 0 -96 -42t-41 -102v-647 q0 -57 41 -101t96 -44h49q55 0 93 44t38 101zM836 958v-661q0 -131 -90 -225t-216 -95h-88q-127 0 -217 93q-88 94 -88 227v661q0 132 89 224t216 92h88q126 0 216 -94t90 -222z" glyph-name="ocircumflex" horiz-adv-x="985" unicode="ô"/><glyph d="M858 1722q0 -127 -55 -216t-154 -89q-55 0 -156 50q-101 51 -147 51t-89 -45q-42 -45 -42 -77t-14 -32h-78q-14 0 -14 20q-1 100 73 198t174 97q64 0 146 -54t132 -54t91 43t41 108q0 18 18 19h60q14 -1 14 -19zM647 301v647q0 60 -38 102t-93 42h-49q-55 0 -96 -42 t-41 -102v-647q0 -57 41 -101t96 -44h49q55 0 93 44t38 101zM836 958v-661q0 -131 -90 -225t-216 -95h-88q-127 0 -217 93q-88 94 -88 227v661q0 132 89 224t216 92h88q126 0 216 -94t90 -222z" glyph-name="otilde" horiz-adv-x="985" unicode="õ"/><glyph d="M354 1651v-213q0 -37 -30 -37h-150q-31 0 -31 37v213q0 33 31 32h150q30 1 30 -32zM838 1651v-213q0 -37 -31 -37h-152q-31 0 -30 37v213q0 33 30 32h152q31 1 31 -32zM647 301v647q0 60 -38 102t-93 42h-49q-55 0 -96 -42t-41 -102v-647q0 -57 41 -101t96 -44h49 q55 0 93 44t38 101zM836 958v-661q0 -131 -90 -225t-216 -95h-88q-127 0 -217 93q-88 94 -88 227v661q0 132 89 224t216 92h88q126 0 216 -94t90 -222z" glyph-name="odieresis" horiz-adv-x="985" unicode="ö"/><glyph d="M670 293v-201q0 -33 -31 -33h-174q-31 0 -31 33v201q0 29 31 29h174q31 0 31 -29zM991 735v-141q0 -27 -28 -27h-793q-27 0 -27 27v141q0 33 27 33h793q28 0 28 -33zM670 1225v-203q0 -31 -31 -31h-174q-31 0 -31 31v203q0 27 31 26h174q31 1 31 -26z" glyph-name="divide" horiz-adv-x="1132" unicode="÷"/><glyph d="M670 301v436l-299 -508q55 -74 121 -73h47q55 0 93 44t38 101zM492 1092q-56 0 -98 -42t-42 -102v-422l299 502q-51 63 -112 64h-47zM860 958v-661q0 -131 -90 -225t-215 -95h-88q-98 0 -201 76l-26 -47q-16 -29 -31 -29h-133q-16 -1 -26 9t-5 22l125 209q-8 41 -8 80 v661q0 132 89 224t216 92h88q98 0 199 -74l26 45q16 29 31 29h127q16 0 27 -9q10 -10 4 -22l-119 -203q10 -51 10 -82z" glyph-name="oslash" horiz-adv-x="1003" unicode="ø"/><glyph d="M784 1395l-4 -4q-12 -23 -47 -7l-504 226q-20 8 0 45l76 141q16 33 41 10l428 -362q24 -22 10 -49zM858 1223v-1192q0 -29 -29 -29h-145q-16 0 -29 33q-27 70 -75 69q-36 0 -94 -63t-105 -64h-76q-59 0 -115 66q-53 66 -53 139v1041q0 29 29 28h145q29 0 29 -28v-877 q0 -68 38 -112t99 -44t121 48q59 49 59 114v871q0 29 29 28h143q29 1 29 -28z" glyph-name="ugrave" horiz-adv-x="1007" unicode="ù"/><glyph d="M707 1796l75 -141q20 -37 0 -45l-503 -226q-35 -16 -48 7l-4 4q-14 27 13 49l426 362q25 23 41 -10zM858 1223v-1192q0 -29 -29 -29h-145q-16 0 -29 33q-27 70 -75 69q-36 0 -94 -63t-105 -64h-76q-59 0 -115 66q-53 66 -53 139v1041q0 29 29 28h145q29 0 29 -28v-877 q0 -68 38 -112t99 -44t121 48q59 49 59 114v871q0 29 29 28h143q29 1 29 -28z" glyph-name="uacute" horiz-adv-x="1007" unicode="ú"/><glyph d="M825 1335h-114q-35 0 -56 33l-112 160q-45 57 -90 0l-113 -156q-25 -37 -57 -37h-119q-53 0 -53 21q0 10 12 28l235 332q14 20 31 21h215q15 -1 27 -15l241 -333q12 -16 13 -29q0 -25 -60 -25zM858 1223v-1192q0 -29 -29 -29h-145q-16 0 -29 33q-27 70 -75 69 q-36 0 -94 -63t-105 -64h-76q-59 0 -115 66q-53 66 -53 139v1041q0 29 29 28h145q29 0 29 -28v-877q0 -68 38 -112t99 -44t121 48q59 49 59 114v871q0 29 29 28h143q29 1 29 -28z" glyph-name="ucircumflex" horiz-adv-x="1007" unicode="û"/><glyph d="M354 1651v-213q0 -37 -30 -37h-150q-31 0 -31 37v213q0 33 31 32h150q30 1 30 -32zM838 1651v-213q0 -37 -31 -37h-152q-31 0 -30 37v213q0 33 30 32h152q31 1 31 -32zM858 1223v-1192q0 -29 -29 -29h-145q-16 0 -29 33q-27 70 -75 69q-36 0 -94 -63t-105 -64h-76 q-59 0 -115 66q-53 66 -53 139v1041q0 29 29 28h145q29 0 29 -28v-877q0 -68 38 -112t99 -44t121 48q59 49 59 114v871q0 29 29 28h143q29 1 29 -28z" glyph-name="udieresis" horiz-adv-x="1007" unicode="ü"/><glyph d="M707 1796l75 -141q20 -37 0 -45l-503 -226q-35 -16 -48 7l-4 4q-14 27 13 49l426 362q25 23 41 -10zM92 -369q-29 0 -29 31v133q0 29 29 29h37q93 0 145 72t52 151v21l-281 1146q-8 37 29 37h137q23 0 29 -22l163 -772q12 -59 48 -60q37 0 49 60l157 774q2 20 25 20h137 q37 0 29 -37l-291 -1169q-63 -264 -170 -354q-72 -59 -211 -60h-84z" glyph-name="yacute" horiz-adv-x="1107" unicode="ý"/><glyph d="M655 289v667q0 139 -125 140q-56 0 -118 -39t-62 -92v-680q0 -57 64 -97q57 -39 116 -38q125 0 125 139zM862 961v-658q0 -143 -68 -229t-182 -86q-55 0 -110 39t-81 39q-27 0 -49 -23t-22 -53v-328q0 -31 -28 -31h-150q-29 0 -29 31v1970q0 29 29 29h150q29 0 28 -29 v-377q0 -74 66 -73q25 0 80 41t116 41q110 0 180 -85t70 -218z" glyph-name="thorn" horiz-adv-x="1005" unicode="þ"/><glyph d="M377 1651v-213q0 -37 -31 -37h-149q-31 0 -31 37v213q0 33 31 32h149q31 1 31 -32zM860 1651v-213q0 -37 -31 -37h-151q-31 0 -31 37v213q0 33 31 32h151q31 1 31 -32zM92 -369q-29 0 -29 31v133q0 29 29 29h37q93 0 145 72t52 151v21l-281 1146q-8 37 29 37h137 q23 0 29 -22l163 -772q12 -59 48 -60q37 0 49 60l157 774q2 20 25 20h137q37 0 29 -37l-291 -1169q-63 -264 -170 -354q-72 -59 -211 -60h-84z" glyph-name="ydieresis" horiz-adv-x="1107" unicode="ÿ"/><glyph d="M788 309v1030q0 37 -24 63q-25 26 -64 25h-112q-88 1 -146 -75t-59 -176v-703q0 -104 59 -179t146 -75h112q36 1 62 27t26 63zM1550 188v-155q0 -33 -30 -33h-967q-172 0 -291 125t-119 303v789q0 176 119 296q119 125 291 125h946q31 0 31 -30v-148q0 -33 -31 -33h-385 q-40 1 -64 -25t-24 -63v-288q0 -37 28 -63t60 -25h291q31 0 31 -29v-146q0 -31 -31 -30h-291q-36 0 -62 -26t-26 -62v-361q0 -37 26 -63t62 -27h406q30 0 30 -31z" glyph-name="OE" horiz-adv-x="1693" unicode="Œ"/><glyph d="M651 301v647q0 60 -37 102t-94 42h-47q-55 0 -97 -42t-42 -102v-647q0 -57 42 -101t97 -44h47q55 0 93 44t38 101zM1196 799v155q0 56 -37 94t-90 37h-98q-53 1 -91 -37t-38 -94v-155q0 -59 55 -60h244q55 1 55 60zM1386 330q0 -156 -93 -254t-242 -99h-64 q-129 0 -237 91q-102 -90 -213 -91h-88q-129 0 -218 93q-88 94 -88 227v661q0 132 88 224t218 92h88q106 0 208 -84q94 84 199 84h148q125 0 206 -113q82 -109 82 -266v-281q0 -31 -28 -30h-455q-55 0 -55 -58v-219q0 -55 38 -96t91 -41h84q55 0 93 41t38 96v23q0 31 28 30 h144q28 1 28 -30z" glyph-name="oe" horiz-adv-x="1527" unicode="œ"/><glyph d="M457 2111v-213q0 -37 -31 -36h-150q-31 0 -30 36v213q0 33 30 33h150q31 0 31 -33zM940 2111v-213q0 -37 -31 -36h-151q-31 0 -31 36v213q0 33 31 33h151q31 0 31 -33zM674 618v-591q0 -27 -27 -27h-178q-27 0 -27 27v591q0 33 -14 64l-383 942q-2 8 3 11t18 3h198 q14 0 29 -36l213 -572q22 -53 58 -53t54 55l179 572q10 35 26 34h199q10 0 14 -3t2 -11l-350 -942q-14 -35 -14 -64z" glyph-name="Ydieresis" horiz-adv-x="1280" unicode="Ÿ"/><glyph d="M825 1335h-114q-35 0 -56 33l-112 160q-45 57 -90 0l-113 -156q-25 -37 -57 -37h-119q-53 0 -53 21q0 10 12 28l235 332q14 20 31 21h215q15 -1 27 -15l241 -333q12 -16 13 -29q0 -25 -60 -25z" glyph-name="circumflex" horiz-adv-x="993" unicode="ˆ"/><glyph d="M858 1722q0 -127 -55 -216t-154 -89q-55 0 -156 50q-101 51 -147 51t-89 -45q-42 -45 -42 -77t-14 -32h-78q-14 0 -14 20q-1 100 73 198t174 97q64 0 146 -54t132 -54t91 43t41 108q0 18 18 19h60q14 -1 14 -19z" glyph-name="tilde" horiz-adv-x="921" unicode="˜"/><glyph d="M868 750v-175q0 -33 -28 -32h-670q-27 0 -27 32v175q0 41 27 41h670q28 0 28 -41z" glyph-name="endash" horiz-adv-x="1009" unicode="–"/><glyph d="M1362 750v-175q0 -33 -29 -32h-1163q-27 0 -27 32v175q0 41 27 41h1163q29 0 29 -41z" glyph-name="emdash" horiz-adv-x="1503" unicode="—"/><glyph d="M373 1298v-211q0 -31 -29 -30h-170q-31 0 -31 30v211q0 16 27 82l96 240q16 41 33 41h29q32 0 28 -19l-75 -237q-2 -6 -2 -28t26 -36q20 -14 39 -14q29 0 29 -29z" glyph-name="quoteleft" horiz-adv-x="516" unicode="‘"/><glyph d="M375 1632v-213q0 -18 -27 -80l-96 -239q-14 -43 -33 -43h-29q-34 0 -30 20l76 236q4 11 4 29t-24 33t-44 16q-29 0 -29 28v213q0 29 29 29h172q31 0 31 -29z" glyph-name="quoteright" horiz-adv-x="516" unicode="’"/><glyph d="M373 272v-211q0 -20 -27 -81l-96 -240q-16 -41 -33 -41h-27q-37 0 -30 18l76 238q2 5 2 25t-22 35t-44 16q-29 0 -29 30v211q0 29 29 29h170q31 0 31 -29z" glyph-name="quotesinglbase" horiz-adv-x="516" unicode="‚"/><glyph d="M375 1298v-211q0 -31 -29 -30h-172q-31 0 -31 30v211q0 16 27 82l96 240q18 41 35 41h27q37 0 30 -19l-75 -237q-4 -12 -4 -31t26 -33q20 -14 41 -14q29 0 29 -29zM799 1298v-211q0 -31 -29 -30h-170q-31 0 -31 30v211q0 16 27 82l96 240q16 41 33 41h29q32 0 28 -19 l-75 -237q-2 -6 -2 -28t26 -36q20 -14 39 -14q29 0 29 -29z" glyph-name="quotedblleft" horiz-adv-x="942" unicode="“"/><glyph d="M375 1632v-213q0 -18 -27 -80l-96 -239q-14 -43 -33 -43h-29q-34 0 -30 20l76 236q4 11 4 29t-24 33t-44 16q-29 0 -29 28v213q0 29 29 29h172q31 0 31 -29zM799 1632v-213q0 -18 -27 -80l-96 -239q-16 -43 -33 -43h-27q-37 0 -30 20l76 236q2 7 2 27t-25 38 q-23 12 -41 13q-29 0 -29 28v213q0 29 29 29h170q31 0 31 -29z" glyph-name="quotedblright" horiz-adv-x="942" unicode="”"/><glyph d="M373 272v-211q0 -20 -27 -81l-96 -240q-16 -41 -33 -41h-27q-37 0 -30 18l76 238q2 5 2 25t-22 35t-44 16q-29 0 -29 30v211q0 29 29 29h170q31 0 31 -29zM799 272v-211q0 -20 -27 -81l-96 -240q-18 -41 -35 -41h-27q-37 0 -30 18l75 238q13 39 -13 57t-50 19 q-29 0 -29 30v211q0 29 29 29h172q31 0 31 -29z" glyph-name="quotedblbase" horiz-adv-x="942" unicode="„"/><glyph d="M840 684q0 -156 -102 -268t-250 -113q-148 0 -249 113q-101 114 -101 268t100 266q102 112 249 113q147 0 248 -113q105 -110 105 -266z" glyph-name="bullet" horiz-adv-x="976" unicode="•"/><glyph d="M379 274v-235q0 -39 -31 -39h-174q-31 0 -31 39v235q0 31 31 31h174q31 0 31 -31zM807 274v-235q0 -39 -31 -39h-174q-31 0 -31 39v235q0 31 31 31h174q31 0 31 -31zM1237 274v-235q0 -39 -31 -39h-174q-31 0 -31 39v235q0 31 31 31h174q31 0 31 -31z" glyph-name="ellipsis" horiz-adv-x="1380" unicode="…"/><glyph d="M428 991q8 8 25 8t88 -81q20 -20 0 -46l-162 -174q-17 -20 -17 -49t17 -45l162 -178q18 -23 -2 -43l-66 -78q-20 -20 -41 0l-295 324q-23 23 0 45z" glyph-name="guilsinglleft" horiz-adv-x="677" unicode="‹"/><glyph d="M315 649q0 29 -16 49l-162 174q-20 25 0 46q6 6 39 44t49 37q16 0 25 -8l291 -317q23 -22 0 -45l-295 -324q-23 -23 -41 0l-66 78q-20 20 -2 43l162 178q16 16 16 45z" glyph-name="guilsinglright" horiz-adv-x="677" unicode="›"/><glyph d="M1053 1612v-123q0 -29 -29 -29h-250q-32 0 -58 -26t-26 -62v-659q0 -27 -24 -27h-144q-27 0 -26 27v659q0 37 -23 63t-59 25h-250q-27 0 -27 29v123q0 27 27 26h860q29 1 29 -26zM2386 1612v-899q0 -27 -27 -27h-135q-29 0 -29 27v547q0 59 -38 59q-29 0 -52 -47 l-221 -547q-14 -39 -29 -39h-92q-14 0 -28 39l-215 549q-16 43 -56 43t-41 -55v-549q0 -27 -28 -27h-144q-25 0 -24 27v899q0 27 24 26h291q18 0 37 -47l180 -456q23 -55 53 -56q33 0 52 56l168 467q12 37 28 36h299q27 1 27 -26z" glyph-name="trademark" horiz-adv-x="2525" unicode="™"/></font>
</defs>
</svg>
